<?xml version="1.0" standalone="no"?>
<!DOCTYPE svg PUBLIC "-//W3C//DTD SVG 20010904//EN"
 "http://www.w3.org/TR/2001/REC-SVG-20010904/DTD/svg10.dtd">
<svg version="1.0" xmlns="http://www.w3.org/2000/svg"
 width="1391.000000pt" height="1599.000000pt" viewBox="0 0 1391.000000 1599.000000"
 preserveAspectRatio="xMidYMid meet">

<g transform="translate(0.000000,1599.000000) scale(0.100000,-0.100000)"
fill="#000000" stroke="none">
<path d="M6710 14939 c-58 -10 -141 -23 -185 -29 -162 -21 -312 -39 -390 -45
-104 -8 -203 -29 -258 -53 -25 -11 -98 -53 -163 -94 -66 -40 -155 -90 -199
-109 -44 -20 -103 -46 -132 -59 -118 -52 -198 -183 -257 -424 -10 -38 -33
-100 -52 -137 -44 -88 -79 -210 -93 -324 -24 -193 -8 -835 26 -1039 18 -114
23 -290 8 -305 -9 -9 -55 -22 -127 -36 -20 -4 -30 -13 -35 -33 -9 -36 -7 -49
27 -167 16 -55 50 -194 75 -310 37 -170 55 -232 96 -325 61 -139 75 -177 88
-255 6 -33 31 -100 56 -150 24 -49 63 -139 86 -200 85 -228 145 -353 236 -494
23 -35 45 -76 48 -91 10 -45 -11 -100 -65 -172 -104 -137 -248 -245 -419 -314
-202 -81 -342 -114 -491 -114 -105 -1 -171 -26 -322 -125 -150 -99 -254 -148
-423 -200 -82 -25 -188 -59 -235 -75 -47 -16 -119 -36 -160 -44 -84 -17 -187
-51 -174 -58 5 -3 3 -3 -5 -1 -8 2 -56 -11 -107 -28 -67 -23 -91 -35 -87 -45
7 -19 56 -31 61 -16 2 7 9 12 16 12 6 0 29 9 50 20 22 10 43 17 47 14 5 -3 19
2 31 10 12 9 33 16 46 16 13 0 36 7 53 15 16 9 34 13 39 10 6 -3 10 -2 10 3 0
5 33 7 73 5 238 -12 409 4 428 39 6 11 22 18 42 19 30 1 31 1 7 9 -25 8 -25 8
5 10 17 1 33 2 38 1 4 0 7 3 7 8 0 9 98 7 107 -3 12 -12 141 -6 175 8 19 8 59
17 90 20 31 2 65 9 76 15 12 6 32 11 46 11 14 0 49 9 78 19 57 21 234 35 244
20 7 -12 71 -12 78 0 4 6 19 6 39 0 17 -4 49 -10 69 -13 21 -2 42 -7 47 -10 5
-4 12 -2 16 3 9 16 45 8 51 -11 6 -21 30 -24 37 -5 3 7 6 5 6 -5 1 -14 10 -18
40 -18 39 0 39 0 31 -29 -8 -30 -8 -30 33 -29 34 0 38 2 20 9 -13 5 -22 16
-22 26 1 17 2 17 6 1 3 -11 14 -18 29 -18 14 0 22 -4 19 -10 -3 -5 -1 -10 4
-10 6 0 11 5 11 11 0 5 5 7 11 3 7 -4 7 -9 1 -13 -13 -8 -8 -54 6 -59 7 -2 12
-16 13 -30 l1 -27 8 25 c4 14 9 19 10 13 2 -13 5 -25 10 -40 1 -5 1 -33 0 -65
-1 -48 2 -57 18 -63 11 -3 25 -12 32 -20 12 -14 29 -114 36 -210 2 -27 10 -97
17 -155 8 -58 13 -108 11 -112 -6 -9 25 -500 36 -577 5 -36 10 -152 10 -256 1
-197 6 -255 21 -255 5 0 9 6 9 13 0 6 14 41 31 77 l31 65 -7 185 c-4 102 -12
188 -17 191 -6 4 -8 37 -5 80 3 41 6 107 6 146 l0 73 43 -1 c33 -1 48 -8 65
-28 12 -15 25 -22 30 -17 4 5 3 11 -3 13 -17 6 11 109 39 145 63 84 90 108
117 108 27 0 28 -2 32 -57 2 -32 0 -76 -3 -98 -7 -41 -3 -57 9 -40 9 13 45 13
54 0 4 -5 8 -30 8 -56 0 -34 7 -55 30 -86 l31 -42 47 14 c60 19 88 19 95 1 3
-8 18 -16 34 -18 28 -3 28 -4 25 -63 -3 -62 -10 -104 -37 -215 -9 -36 -18 -83
-21 -105 -6 -45 -46 -113 -72 -122 -34 -14 -139 -109 -147 -134 -4 -10 -12
-19 -18 -20 -7 0 -50 -52 -97 -115 -46 -63 -88 -114 -92 -114 -3 0 -10 -15
-14 -32 -7 -35 -75 -107 -103 -109 -44 -3 -101 19 -102 41 -2 33 -18 -45 -22
-110 -3 -38 -8 -74 -11 -79 -5 -7 -7 -693 -4 -1141 0 -14 -2 -485 -5 -1048
l-5 -1022 23 0 c12 0 43 -9 67 -20 58 -25 134 -44 278 -69 63 -11 130 -24 149
-27 34 -7 34 -7 15 13 -92 97 -148 153 -156 153 -17 0 -7 18 13 23 19 5 21 11
15 42 -5 28 -3 37 9 42 33 12 -9 22 -91 22 -101 -1 -140 7 -200 37 -26 13 -58
24 -71 24 -23 0 -23 2 -23 103 0 56 4 108 8 115 10 15 168 31 310 32 l102 0 0
-120 c0 -118 0 -120 30 -154 17 -18 42 -59 56 -90 38 -84 101 -124 229 -145
70 -12 401 -38 595 -46 133 -6 213 -19 238 -38 7 -5 16 -7 20 -3 11 12 4 139
-9 146 -20 13 -24 392 -6 580 9 91 21 257 27 370 6 113 16 266 21 340 6 74 15
216 19 315 5 99 14 206 21 238 8 36 9 61 3 65 -11 9 -15 24 -21 82 -6 65 -12
90 -22 90 -15 0 -27 -145 -20 -245 7 -101 4 -234 -6 -243 -3 -3 -5 16 -5 41 0
32 -4 47 -13 47 -7 0 -13 -11 -12 -27 0 -14 -6 -28 -12 -30 -9 -3 -14 13 -15
59 -5 117 1 161 23 191 23 32 19 77 -6 77 -11 0 -15 12 -16 43 -6 162 5 1504
11 1511 4 4 16 -4 25 -18 10 -14 24 -26 32 -26 8 0 12 -4 8 -9 -3 -5 -1 -12 5
-16 6 -3 10 4 9 17 0 13 2 40 6 60 4 20 4 58 1 83 -6 36 -14 50 -39 67 -36 23
-65 95 -96 233 -22 95 -118 408 -137 447 -16 31 -18 62 -5 53 6 -3 13 11 17
32 11 64 44 123 70 123 12 0 24 -5 26 -11 6 -18 45 6 54 33 4 13 8 38 8 57 1
31 3 33 39 37 l37 3 0 -40 c0 -23 -7 -47 -15 -55 -8 -9 -14 -25 -14 -37 1 -20
2 -20 6 -3 3 11 12 26 20 34 12 12 16 12 33 -3 12 -11 20 -13 20 -7 0 26 101
-1 122 -31 8 -13 -2 -39 -19 -52 -17 -13 -31 -125 -16 -125 12 0 32 23 48 52
5 12 14 20 20 19 5 -2 12 6 16 17 7 17 15 19 59 16 29 -2 61 1 71 7 18 9 19 7
14 -18 -4 -15 -11 -38 -17 -51 -10 -20 -13 -21 -29 -6 -20 18 -39 0 -20 -19 8
-8 11 -7 11 3 0 7 3 11 6 7 3 -3 -1 -16 -10 -28 -14 -21 -14 -24 1 -41 14 -16
15 -27 4 -101 -16 -100 -12 -162 9 -162 10 0 15 -10 15 -33 0 -19 5 -32 12
-32 8 0 13 12 13 29 0 16 6 31 13 34 14 5 37 111 37 171 0 55 46 275 75 357
14 40 25 87 25 106 0 18 5 33 11 33 7 0 9 15 7 43 -4 39 14 129 31 152 5 6 25
54 46 108 20 54 43 101 50 104 8 2 17 19 20 36 4 18 15 46 25 62 10 17 21 40
25 53 4 13 30 48 59 77 50 52 82 117 69 138 -3 6 -1 7 5 3 12 -7 42 19 42 37
0 7 -5 6 -11 -3 -13 -19 -10 -9 24 63 15 32 27 73 27 92 0 18 5 46 12 62 8 20
11 149 9 466 l-2 438 -24 36 c-53 77 -45 126 50 293 100 177 177 398 210 606
8 54 39 104 65 104 12 0 26 12 36 33 9 17 33 57 54 87 117 174 157 267 210
490 4 19 15 60 23 90 33 121 40 197 27 314 -15 141 -39 202 -83 211 -42 9 -73
29 -94 62 -16 25 -19 71 -24 488 -6 452 -6 462 -32 560 -14 55 -35 152 -47
215 -12 63 -30 133 -39 155 -29 65 -153 216 -248 303 -281 255 -283 257 -460
337 -289 130 -636 216 -868 214 -49 -1 -137 -10 -195 -20z m240 -1693 c0 -16
50 -9 50 8 0 6 5 4 10 -6 6 -10 18 -14 30 -11 21 6 29 -20 10 -32 -22 -14 -9
-27 20 -21 17 3 30 1 30 -4 0 -6 -4 -10 -10 -10 -5 0 -10 -7 -10 -15 0 -9 -9
-15 -22 -15 -13 0 -34 -9 -48 -20 l-25 -20 45 -1 c38 -1 41 -2 20 -9 -14 -4
-50 -8 -82 -9 -33 -1 -58 -6 -60 -13 -3 -7 -28 -11 -75 -9 -64 2 -71 0 -76
-18 -5 -21 -41 -29 -51 -12 -3 5 -19 11 -36 13 -22 3 -30 1 -30 -11 0 -12 -3
-12 -12 -3 -7 7 -22 12 -35 12 -13 0 -22 5 -20 13 2 12 -11 13 -72 3 -19 -3
-41 -1 -48 5 -16 14 -43 -5 -43 -29 0 -12 -4 -11 -16 6 -12 18 -19 20 -35 12
-10 -6 -19 -17 -19 -24 0 -18 -31 -29 -44 -16 -15 15 -62 12 -76 -5 -10 -12
-17 -12 -43 -1 -18 7 -37 11 -44 9 -16 -6 -73 37 -73 54 0 7 12 15 28 18 15 3
43 10 62 15 21 6 36 6 40 0 3 -5 12 -5 19 -1 11 7 11 10 -2 17 -13 8 -13 12
-2 27 7 10 17 17 21 15 5 -1 20 4 33 11 14 8 40 11 63 8 31 -4 40 -1 48 14 8
13 22 19 48 19 20 0 54 6 75 13 21 8 60 13 87 13 28 -1 50 1 50 5 0 3 16 5 35
5 22 0 35 -5 35 -13 0 -7 5 -13 10 -13 6 0 10 7 10 15 0 8 5 15 10 15 6 0 10
-5 10 -11 0 -7 10 -9 24 -5 14 3 27 2 30 -3 4 -5 19 -3 37 6 16 8 40 12 52 9
12 -3 29 -1 37 4 21 13 30 12 30 -4z m-590 -46 c0 -5 -9 -10 -20 -10 -11 0
-20 5 -20 10 0 6 9 10 20 10 11 0 20 -4 20 -10z m-310 -200 c0 -5 -4 -10 -10
-10 -5 0 -10 5 -10 10 0 6 5 10 10 10 6 0 10 -4 10 -10z m1635 -79 c3 -5 29
-21 58 -35 28 -13 83 -54 122 -91 56 -53 67 -68 55 -75 -22 -14 -31 -12 -37 9
-3 11 -15 22 -27 25 -26 7 -66 39 -66 54 0 6 -10 14 -22 18 -38 11 -128 75
-128 90 0 16 36 19 45 5z m-1015 -563 c0 -6 11 -26 25 -44 14 -18 25 -40 25
-49 0 -9 5 -26 11 -37 8 -16 7 -29 -6 -59 -14 -30 -15 -42 -6 -53 9 -11 10
-24 2 -53 -6 -21 -11 -52 -11 -70 0 -17 -5 -35 -11 -39 -7 -4 -9 -22 -6 -45 3
-22 1 -42 -4 -45 -5 -3 -9 -18 -9 -33 0 -15 -6 -33 -12 -39 -10 -10 -10 -17
-1 -31 8 -13 9 -21 1 -29 -8 -8 -8 -16 2 -27 18 -21 10 -25 -33 -18 -29 4 -37
10 -37 26 0 12 -12 31 -27 43 l-28 22 18 36 c11 24 14 43 9 54 -5 9 -8 63 -8
120 1 56 -3 102 -7 102 -5 0 -5 5 -2 10 3 6 2 10 -2 10 -12 0 0 120 13 128 5
4 11 18 12 32 4 55 7 76 15 88 10 15 77 16 77 0z m1103 -295 c4 -3 2 -12 -4
-20 -14 -16 -59 -18 -59 -2 0 6 9 8 20 4 14 -5 20 -2 20 9 0 16 12 21 23 9z
m-88 -53 c3 -5 -3 -10 -14 -10 -13 0 -21 -9 -26 -30 -4 -17 -10 -28 -15 -25
-5 3 -14 -1 -22 -8 -32 -33 -138 -42 -138 -12 0 23 31 31 45 12 18 -24 22 -21
17 12 -4 28 -2 30 42 36 25 4 53 13 63 21 22 16 40 18 48 4z m-305 -70 c46 1
59 -3 77 -22 33 -36 51 -48 67 -48 9 0 19 -12 22 -27 4 -16 11 -34 17 -40 7
-10 4 -13 -12 -13 -12 0 -21 -6 -21 -15 0 -8 -6 -15 -12 -15 -7 0 -25 -14 -40
-32 -21 -27 -29 -31 -39 -20 -7 6 -26 12 -42 12 -20 0 -30 6 -34 19 -3 13 -11
17 -25 13 -12 -3 -26 1 -32 9 -13 16 -63 48 -88 56 -19 6 -33 37 -23 53 3 6
-1 13 -9 16 -20 8 -20 28 -1 44 10 9 15 9 15 1 0 -6 14 -11 30 -11 17 0 29 3
29 8 -3 20 4 24 34 17 17 -4 57 -6 87 -5z m135 -210 c3 -6 -1 -7 -9 -4 -18 7
-21 14 -7 14 6 0 13 -4 16 -10z m-548 -52 c-3 -8 -6 -5 -6 6 -1 11 2 17 5 13
3 -3 4 -12 1 -19z m46 -58 c7 -28 -7 -33 -33 -10 -18 16 -20 21 -8 33 15 17
33 7 41 -23z m-1183 -10 c0 -5 -4 -10 -9 -10 -6 0 -13 5 -16 10 -3 6 1 10 9
10 9 0 16 -4 16 -10z m789 -23 c12 -15 5 -27 -16 -27 -7 0 -13 9 -13 20 0 23
13 26 29 7z m1438 -1349 c-5 -130 -10 -169 -37 -263 -35 -126 -66 -209 -90
-245 -10 -14 -23 -43 -30 -65 -18 -59 -120 -265 -131 -265 -5 0 -9 -6 -9 -12
0 -7 -9 -24 -20 -38 -11 -14 -20 -32 -20 -41 0 -8 -6 -24 -14 -34 -12 -16 -16
-17 -30 -6 -9 7 -34 13 -56 13 -22 0 -40 3 -40 9 0 5 12 9 26 9 24 0 26 3 20
30 -3 19 -2 29 4 25 6 -3 10 1 10 10 0 9 -4 14 -9 11 -13 -8 -23 24 -12 38 4
6 11 25 14 41 3 17 11 50 17 75 6 25 13 52 15 61 2 8 10 32 19 54 17 40 14 57
-6 37 -7 -7 -22 -12 -35 -12 -13 0 -23 -4 -23 -10 0 -5 -7 -10 -15 -10 -8 0
-15 -5 -15 -11 0 -8 -5 -8 -15 1 -20 17 -1 43 138 186 60 62 127 137 149 166
48 65 116 204 153 316 15 45 32 82 37 82 7 0 9 -51 5 -152z m-2438 -191 c8
-43 7 -46 -10 -36 -19 10 -27 67 -12 82 10 10 12 5 22 -46z m109 -210 c18 -26
32 -52 32 -58 0 -5 5 -9 11 -9 6 0 33 -23 61 -50 46 -46 50 -53 44 -85 -6 -31
-11 -35 -37 -35 -17 0 -32 -6 -35 -15 -4 -8 -12 -15 -20 -15 -8 0 -15 -7 -15
-15 -1 -8 -2 -21 -3 -27 -1 -7 5 -16 14 -20 12 -5 12 -7 -2 -7 -13 -1 -18 -9
-18 -30 0 -20 6 -31 18 -34 13 -3 10 -6 -10 -11 -16 -5 -28 -14 -28 -22 0 -8
-7 -14 -15 -14 -8 0 -15 5 -15 11 0 5 4 8 9 5 13 -8 20 15 15 50 -2 16 -1 20
2 9 13 -43 19 -31 14 28 -3 40 -5 51 -8 30 -2 -18 -7 -33 -13 -33 -5 0 -9 -11
-9 -25 0 -14 -4 -25 -10 -25 -5 0 -11 -12 -11 -27 l-2 -28 -4 28 c-2 15 -11
27 -19 27 -8 0 -14 7 -14 15 0 8 -5 15 -10 15 -6 0 -8 10 -4 24 4 16 1 25 -10
29 -9 4 -16 18 -16 32 0 14 -5 25 -11 25 -7 0 -9 10 -7 25 3 14 1 25 -3 25 -5
0 -9 32 -9 71 0 56 3 69 13 61 6 -6 28 -12 47 -14 27 -2 36 -8 38 -25 2 -16
10 -23 25 -22 18 1 19 2 4 6 -14 4 -17 11 -13 28 5 21 -14 51 -26 40 -3 -3 -3
6 -1 20 3 14 0 31 -6 39 -8 10 -9 16 -1 21 5 3 10 16 10 28 0 25 5 20 48 -46z
m142 -293 c0 -41 -2 -45 -20 -39 -11 4 -20 2 -20 -4 0 -6 -8 -11 -17 -11 -14
0 -13 3 5 16 12 8 27 12 32 9 6 -4 10 8 10 29 0 42 -17 49 -22 9 -2 -17 -8
-27 -16 -25 -8 1 -11 -2 -7 -8 8 -13 -1 -13 -25 0 -23 12 -16 42 9 38 10 -2
15 3 13 15 -2 13 4 17 28 17 29 0 30 -1 30 -46z m-163 -250 c-3 -3 -12 -4 -19
-1 -8 3 -5 6 6 6 11 1 17 -2 13 -5z m1927 -58 c-4 -10 -1 -22 6 -26 9 -6 7
-13 -9 -29 -24 -24 -28 -61 -6 -61 21 0 19 -27 -5 -47 -28 -24 -25 -65 7 -99
20 -22 27 -40 29 -79 1 -27 5 -69 9 -92 7 -41 -6 -138 -25 -188 -16 -42 -52
-18 -226 152 -93 91 -209 200 -258 242 -49 42 -103 88 -120 103 -17 14 -28 30
-24 33 12 13 100 -15 131 -41 35 -30 54 -30 84 -3 16 16 35 22 68 22 25 0 48
4 51 9 4 5 11 5 17 0 17 -14 58 4 64 29 4 16 8 17 14 7 7 -10 9 -9 9 5 0 9 7
17 16 17 8 0 13 4 9 9 -3 5 4 12 15 16 11 3 20 11 20 16 0 5 7 9 15 9 8 0 15
6 15 13 0 8 4 7 10 -3 8 -13 10 -13 10 2 0 12 10 18 33 20 36 3 49 -8 41 -36z
m31 4 c3 -5 1 -10 -4 -10 -6 0 -11 5 -11 10 0 6 2 10 4 10 3 0 8 -4 11 -10z
m-738 -25 c20 -20 15 -24 -24 -18 -19 3 -33 11 -33 19 0 19 38 18 57 -1z
m-514 -36 c12 -32 14 -47 6 -63 -14 -27 -160 -165 -175 -166 -7 0 -24 -17 -40
-37 -32 -43 -97 -114 -269 -292 -163 -169 -212 -214 -224 -206 -6 3 -11 24
-11 45 0 21 -5 51 -10 65 -19 51 -28 349 -15 513 l7 82 29 0 c19 0 29 -5 29
-15 0 -9 9 -15 25 -15 16 0 25 -6 25 -15 0 -12 13 -15 55 -15 54 0 55 0 55 30
0 25 4 30 25 30 20 0 25 -5 25 -24 0 -13 6 -29 14 -35 14 -12 86 -11 86 2 0 4
9 7 19 7 11 0 22 6 24 13 3 6 6 3 7 -8 1 -19 1 -19 14 -2 8 10 16 18 18 17 1
-1 17 4 33 11 17 7 33 13 37 13 3 1 10 4 14 8 3 4 -3 6 -15 3 -11 -2 -21 0
-21 6 0 5 11 9 24 9 13 0 26 6 28 12 3 8 25 13 59 14 76 1 79 2 79 23 0 11 -6
22 -12 24 -7 3 -1 6 13 6 21 1 29 -6 42 -40z m-2936 25 c-3 -3 -12 -4 -19 -1
-8 3 -5 6 6 6 11 1 17 -2 13 -5z m-360 -110 c-3 -3 -12 -4 -19 -1 -8 3 -5 6 6
6 11 1 17 -2 13 -5z m3082 -1761 c13 -47 14 -172 1 -328 -6 -66 -15 -181 -20
-255 -11 -158 -23 -243 -41 -285 -9 -20 -14 -84 -15 -190 -1 -197 -18 -393
-38 -461 l-16 -50 -87 -33 c-49 -17 -95 -36 -104 -41 -9 -5 -45 -14 -80 -20
-35 -6 -80 -18 -100 -26 -86 -37 -111 6 -90 155 7 47 16 113 20 146 5 33 14
74 21 90 18 42 19 65 4 94 -36 71 -49 146 -48 281 1 156 6 171 82 218 26 16
61 43 77 60 17 17 35 32 41 32 15 0 61 60 75 97 15 39 20 60 29 128 16 113 38
177 70 207 17 15 37 43 45 61 8 19 21 39 29 47 9 7 16 18 16 25 0 15 29 41 72
65 45 25 46 25 57 -17z m-154 -1762 c22 -36 23 -125 4 -421 -11 -173 -22 -339
-25 -369 l-6 -54 -100 7 c-159 11 -266 34 -298 65 -23 22 -20 493 4 536 9 17
16 36 16 43 0 6 7 12 15 12 8 0 15 4 15 9 0 5 14 12 30 16 17 4 30 10 30 15 0
4 12 11 28 15 15 3 34 12 42 19 8 7 30 19 48 26 19 7 44 22 56 33 22 20 100
55 123 56 6 1 14 -3 18 -8z m1122 -303 c-3 -8 -6 -5 -6 6 -1 11 2 17 5 13 3
-3 4 -12 1 -19z m-62 -1164 c6 -61 4 -76 -5 -68 -6 6 -12 39 -13 73 -1 33 -5
61 -8 61 -3 0 -4 12 -1 27 5 24 6 25 13 7 4 -11 10 -56 14 -100z m-1202 -276
c-4 -7 -6 -21 -5 -30 4 -21 -5 -22 -41 -5 -45 21 -34 47 20 47 25 0 32 -3 26
-12z"/>
<path d="M6903 13213 c-13 -2 -23 -9 -23 -14 0 -12 10 -11 40 6 25 15 23 16
-17 8z"/>
<path d="M6247 13108 c-7 -5 1 -8 21 -8 17 0 32 4 32 9 0 11 -35 10 -53 -1z"/>
<path d="M7435 11740 c4 -6 11 -8 16 -5 14 9 11 15 -7 15 -8 0 -12 -5 -9 -10z"/>
<path d="M5618 9733 c6 -2 18 -2 25 0 6 3 1 5 -13 5 -14 0 -19 -2 -12 -5z"/>
<path d="M5638 9713 c7 -3 16 -2 19 1 4 3 -2 6 -13 5 -11 0 -14 -3 -6 -6z"/>
<path d="M5712 9676 c1 -10 8 -17 13 -17 15 1 12 24 -3 29 -9 3 -13 -2 -10
-12z"/>
<path d="M5815 9630 c-3 -5 -1 -10 4 -10 6 0 11 5 11 10 0 6 -2 10 -4 10 -3 0
-8 -4 -11 -10z"/>
<path d="M8630 9986 c0 -2 16 -23 35 -47 20 -23 69 -110 109 -193 56 -115 86
-164 125 -204 28 -28 55 -52 60 -52 5 0 23 -12 40 -26 23 -19 38 -24 56 -20
69 17 114 114 93 201 -6 28 -21 61 -33 75 -12 14 -32 39 -44 57 -25 38 -208
134 -344 182 -92 32 -97 34 -97 27z"/>
<path d="M2695 8998 c-140 -38 -157 -61 -235 -323 -27 -89 -67 -210 -89 -269
-52 -137 -58 -160 -81 -309 -27 -169 -35 -196 -98 -327 -30 -63 -79 -176 -109
-250 -30 -74 -81 -191 -113 -260 -77 -164 -102 -230 -96 -247 3 -8 1 -11 -4
-8 -6 3 -10 2 -10 -4 0 -5 -3 -18 -6 -28 -5 -15 -4 -16 6 -3 9 13 11 12 6 -5
-13 -56 -18 -67 -26 -55 -11 17 -33 -75 -35 -143 0 -34 -6 -61 -13 -66 -7 -4
-19 -48 -27 -98 -20 -124 -55 -229 -136 -414 l-68 -156 10 -64 c13 -76 8 -112
-21 -170 -30 -60 -50 -145 -60 -264 -5 -55 -14 -122 -19 -150 -18 -90 -53
-508 -50 -595 3 -118 3 -125 -9 -395 -6 -132 -9 -364 -8 -515 2 -291 7 -328
57 -437 38 -85 87 -256 109 -383 6 -36 17 -87 25 -115 43 -150 75 -245 94
-283 23 -45 116 -160 164 -203 24 -21 29 -32 23 -52 -5 -22 10 -41 132 -163
184 -185 282 -251 444 -298 169 -49 544 -104 758 -112 168 -7 345 -38 471 -84
174 -64 248 -80 329 -74 78 6 92 4 470 -60 396 -67 525 -87 595 -97 39 -5 108
-14 155 -20 47 -6 99 -15 115 -19 17 -5 44 -12 61 -15 17 -2 75 -18 130 -35
157 -49 179 -51 399 -40 246 13 635 39 695 46 125 14 241 22 390 24 528 9 813
0 904 -29 113 -36 192 -44 451 -42 205 1 261 -2 310 -15 33 -9 83 -23 110 -30
28 -8 120 -21 205 -29 85 -8 178 -22 205 -31 89 -30 313 -24 535 15 283 49
794 150 900 178 52 14 122 32 154 39 63 15 389 64 427 64 82 0 242 150 357
333 94 150 100 167 76 218 -10 24 -30 47 -49 57 -30 16 -184 174 -268 276 -21
25 -59 58 -85 73 -26 14 -60 38 -77 53 -42 37 -91 64 -148 80 -42 11 -50 11
-64 -2 -14 -14 -14 -22 1 -80 9 -35 16 -82 16 -104 0 -21 12 -66 25 -99 14
-33 25 -75 25 -93 0 -19 6 -48 14 -65 26 -56 59 -196 50 -214 -10 -23 -11 -30
-13 -50 -1 -14 -5 -13 -26 7 -14 13 -25 29 -25 36 0 26 -30 23 -47 -6 -19 -33
-57 -46 -94 -32 -22 9 -78 62 -182 174 -19 21 -43 38 -52 38 -14 0 -16 -6 -9
-42 4 -24 6 -49 5 -55 0 -7 -2 -20 -3 -29 -2 -24 -44 -40 -63 -24 -17 14 -145
5 -145 -11 0 -5 -7 -9 -15 -9 -8 0 -14 -6 -13 -12 2 -7 -3 -13 -9 -12 -39 3
-44 5 -39 13 3 5 -6 17 -21 26 -24 16 -30 16 -84 1 -32 -9 -62 -16 -67 -16 -5
0 -15 16 -22 36 -14 34 -52 64 -83 64 -14 0 -57 -52 -57 -70 0 -5 -4 -10 -10
-10 -5 0 -10 -9 -10 -19 0 -11 -8 -26 -19 -33 -10 -7 -21 -22 -23 -33 -4 -17
-7 -16 -17 10 -9 21 -10 39 -3 62 8 26 7 35 -7 47 -20 19 -58 21 -63 5 -2 -6
-22 -13 -43 -15 -29 -2 -36 -1 -25 6 13 9 13 11 0 20 -21 14 -30 12 -36 -5 -4
-8 -14 -15 -24 -15 -26 0 -32 -14 -20 -44 9 -24 8 -25 -16 -14 -22 10 -28 9
-40 -6 -7 -11 -11 -22 -9 -27 3 -4 0 -9 -7 -11 -7 -3 -12 -29 -14 -64 -1 -32
-3 -67 -3 -77 -1 -17 -39 -39 -53 -31 -3 2 -2 19 3 37 10 34 -7 127 -23 127
-5 0 -15 14 -22 31 -11 26 -11 39 2 82 13 44 13 53 0 76 -8 14 -21 49 -28 76
-13 51 -63 144 -122 227 -225 317 -401 469 -563 485 l-60 6 92 -48 c156 -80
257 -188 361 -385 67 -128 122 -316 122 -419 0 -39 -35 -101 -56 -101 -32 0
-132 -84 -113 -95 30 -19 -15 -85 -58 -85 -13 0 -23 -5 -23 -10 0 -6 -10 -14
-22 -19 -12 -4 -27 -23 -33 -42 -7 -19 -19 -34 -28 -34 -8 0 -19 -4 -23 -8
-11 -11 -52 -9 -59 3 -10 16 -25 2 -25 -22 0 -12 -3 -18 -7 -15 -9 10 -33 -13
-33 -32 0 -11 -15 -21 -45 -30 -25 -7 -47 -12 -49 -10 -2 2 -8 13 -14 24 -11
20 -12 20 -18 -3 -4 -12 -14 -22 -25 -22 -10 0 -22 -7 -26 -15 -9 -15 -53 -10
-53 7 0 5 21 33 48 61 105 115 133 156 163 242 41 120 52 206 38 318 -30 263
-120 462 -273 605 -85 79 -129 96 -232 87 -135 -11 -299 -11 -296 0 1 6 5 10
10 10 4 1 16 6 27 12 34 19 179 42 329 53 158 12 269 28 496 71 463 90 569
100 797 80 117 -10 135 -10 157 4 19 13 24 24 24 63 0 26 10 74 22 107 25 71
36 123 50 242 17 147 52 368 60 376 4 4 10 -60 14 -144 7 -169 14 -194 39
-156 14 22 80 84 361 337 46 41 125 113 177 160 96 86 107 106 88 155 -4 11
-8 14 -8 7 -1 -9 -8 -8 -26 5 -21 16 -24 26 -25 79 0 47 -4 63 -16 68 -24 9
-31 7 -14 -5 13 -9 13 -10 0 -6 -8 2 -15 10 -15 18 0 7 -9 15 -19 17 -14 3
-17 0 -13 -12 4 -9 2 -16 -3 -16 -5 0 -9 15 -8 34 1 27 5 32 20 28 13 -3 18 1
18 17 0 11 -5 21 -10 21 -21 0 -60 53 -60 81 0 18 -8 34 -20 41 -29 19 -25 32
25 82 25 25 45 50 45 56 0 5 5 10 10 10 6 0 16 12 22 28 7 15 24 37 38 49 41
35 20 33 -55 -4 -74 -38 -233 -103 -250 -103 -5 0 -22 -6 -36 -14 -43 -22 -76
-27 -88 -12 -8 10 -7 17 7 29 21 19 126 67 147 67 8 0 15 5 15 10 0 6 6 10 13
10 8 0 22 9 32 20 9 10 108 74 219 140 110 67 234 145 275 173 l73 52 -31 9
c-24 7 -35 5 -49 -8 -10 -9 -29 -16 -41 -16 -12 0 -37 -11 -55 -25 -22 -16
-46 -25 -70 -25 -66 0 -296 -79 -296 -101 0 -5 -5 -9 -12 -9 -6 0 -26 -12 -45
-26 -38 -29 -90 -47 -98 -34 -3 5 -1 20 5 35 7 19 7 31 0 40 -8 9 -6 17 6 29
16 17 177 103 224 120 14 5 30 16 37 25 6 9 15 13 19 9 9 -10 64 23 64 38 0
13 28 27 40 19 4 -3 10 2 13 10 6 15 57 44 88 50 22 4 53 19 114 55 110 64
523 260 549 260 9 0 133 57 226 105 47 23 95 46 108 50 13 3 49 19 81 33 53
25 58 29 50 50 l-9 23 -45 -31 c-80 -55 -158 -95 -220 -114 -85 -25 -116 -37
-238 -95 -59 -28 -109 -51 -111 -51 -2 0 -56 -25 -120 -55 -64 -30 -121 -55
-127 -55 -10 0 -154 -70 -366 -178 -25 -13 -52 -30 -60 -38 -8 -8 -18 -12 -23
-9 -4 3 -10 -2 -14 -10 -3 -8 -14 -15 -24 -15 -11 0 -25 -7 -32 -15 -7 -8 -18
-15 -25 -15 -7 0 -44 -18 -83 -40 -72 -42 -102 -49 -102 -26 0 30 13 46 53 67
23 11 65 41 92 66 l50 45 -35 -6 c-18 -4 -37 -10 -40 -16 -9 -14 -81 -26 -120
-20 l-34 5 36 30 c20 17 61 38 90 48 29 10 71 27 93 37 172 77 260 112 325
129 65 17 226 83 270 111 8 6 20 12 25 14 16 6 157 46 194 56 19 5 50 24 69
43 42 42 36 64 -11 37 -36 -20 -66 -18 -189 16 -65 18 -69 18 -135 0 -49 -13
-96 -37 -168 -85 -96 -64 -178 -113 -256 -152 -19 -10 -41 -25 -49 -33 -7 -9
-18 -16 -25 -16 -11 0 -70 -26 -137 -61 -10 -5 -30 -9 -44 -9 -19 0 -25 4 -20
15 3 8 9 22 12 30 8 19 -4 19 -51 -1 -43 -18 -71 -5 -45 20 16 15 271 146 284
146 9 0 52 19 151 65 39 18 90 43 115 54 25 12 59 33 75 47 l30 25 -144 -2
c-126 -2 -146 0 -157 15 -11 16 -17 16 -84 -5 -58 -17 -74 -19 -80 -8 -6 9
-36 13 -104 13 l-96 0 21 22 c16 17 20 30 15 48 -4 16 -2 26 4 26 6 0 32 22
58 49 26 26 74 68 107 92 67 49 75 57 69 73 -4 11 120 91 186 120 55 24 252
94 285 102 33 8 150 50 177 65 10 5 23 9 29 9 6 0 25 6 42 14 18 8 87 40 155
70 130 59 199 100 184 109 -25 16 -141 26 -192 17 -30 -6 -103 -14 -161 -19
-126 -11 -198 -20 -219 -28 -8 -3 -26 -8 -39 -10 -13 -2 -33 -11 -45 -19 -11
-8 -26 -14 -34 -14 -7 0 -39 -17 -70 -37 -31 -20 -66 -36 -77 -35 -10 0 -25
-4 -32 -9 -6 -6 -17 -8 -23 -4 -5 3 -10 1 -10 -4 0 -6 -7 -11 -15 -11 -8 0
-15 -4 -15 -9 0 -5 -25 -13 -56 -17 -43 -5 -58 -3 -65 7 -5 8 -9 9 -9 4 0 -15
-59 -35 -99 -35 -42 0 -72 16 -65 35 4 9 -5 21 -25 32 -17 10 -31 22 -31 28 0
5 53 62 118 126 64 65 122 123 127 129 6 6 39 40 75 74 86 84 157 161 200 219
19 26 43 57 54 70 101 121 159 187 165 187 10 0 209 223 251 281 66 91 115
148 128 148 6 1 12 8 12 17 0 12 -10 7 -38 -18 -58 -53 -275 -192 -425 -273
-64 -34 -106 -47 -216 -65 -56 -9 -91 2 -91 27 0 7 -6 13 -13 13 -17 0 -77
-85 -77 -108 0 -43 -128 -227 -146 -209 -8 7 35 188 47 202 5 5 9 18 9 29 0
11 8 28 18 39 11 13 13 21 6 24 -8 3 -7 21 3 66 8 34 19 87 24 117 6 30 25
100 44 155 36 109 49 172 35 180 -14 9 -110 -271 -129 -381 -6 -34 -25 -89
-41 -123 -17 -34 -30 -67 -30 -74 0 -8 -3 -17 -7 -21 -8 -7 -11 -23 -19 -76
-6 -46 -43 -159 -60 -185 -7 -11 -25 -56 -39 -100 -15 -44 -31 -82 -36 -86 -5
-3 -14 -34 -20 -68 -5 -35 -21 -91 -34 -124 -14 -33 -25 -76 -25 -95 0 -19 -8
-51 -19 -71 -10 -20 -26 -62 -35 -93 -17 -58 -70 -146 -96 -158 -8 -4 -44 -20
-80 -35 -36 -15 -83 -35 -105 -46 -22 -10 -60 -23 -85 -28 -25 -6 -59 -17 -76
-25 -30 -15 -49 -19 -156 -31 -32 -4 -60 -11 -63 -16 -4 -5 -13 -9 -22 -9 -29
0 -105 -45 -116 -67 -6 -13 -14 -23 -19 -23 -4 0 -8 -6 -8 -14 0 -17 -45 -35
-87 -34 -33 1 -103 -16 -135 -33 -10 -5 -26 -9 -37 -9 -15 0 -18 5 -14 21 6
21 4 21 -68 16 -110 -9 -142 -17 -167 -43 -24 -26 -42 -31 -42 -13 0 8 -5 8
-15 -1 -12 -10 -18 -10 -30 0 -9 8 -30 10 -57 6 -24 -3 -68 -7 -98 -10 -30 -2
-69 -7 -87 -10 -25 -5 -34 -2 -42 13 -9 17 -4 20 47 34 54 15 175 40 432 87
63 12 174 37 245 55 72 18 173 41 225 50 158 28 203 40 208 53 2 6 -7 16 -20
21 -13 5 -41 28 -63 52 -22 24 -57 56 -80 70 -22 15 -53 40 -69 58 -17 17 -38
31 -47 31 -10 0 -21 5 -24 10 -3 6 -13 10 -22 10 -8 0 -35 23 -60 50 -25 28
-49 50 -54 50 -5 0 -28 18 -51 41 -23 22 -58 49 -78 59 -19 10 -47 31 -62 46
-15 16 -33 34 -40 41 -7 6 -24 23 -37 38 -23 25 -28 26 -105 22 -45 -2 -91 -7
-103 -11 -31 -11 -52 28 -29 53 9 10 16 24 16 33 0 8 6 28 14 44 8 16 20 63
26 104 16 109 16 109 29 185 7 39 22 108 33 155 11 47 24 123 28 170 4 47 17
117 28 155 24 78 41 179 48 270 4 58 4 59 -10 30 -8 -16 -42 -124 -76 -240
-33 -115 -117 -381 -185 -590 -121 -369 -172 -539 -213 -715 -32 -133 -262
-908 -327 -1100 -20 -58 -52 -159 -71 -225 -75 -252 -245 -703 -428 -1128
-119 -278 -243 -584 -246 -607 -5 -31 3 -40 116 -136 64 -55 192 -166 285
-248 179 -158 231 -191 288 -182 19 3 40 2 45 -3 6 -5 70 -16 141 -26 75 -10
146 -26 168 -37 21 -10 73 -53 116 -93 63 -61 81 -85 95 -127 l17 -53 -28 -22
c-15 -13 -31 -23 -35 -23 -4 0 -10 -11 -14 -25 -4 -17 -13 -25 -28 -25 -15 0
-17 -3 -8 -9 13 -8 -1 -10 -84 -11 -23 0 -33 -6 -37 -20 -3 -11 -1 -20 4 -20
5 0 9 5 9 10 0 6 5 10 10 10 19 0 10 -19 -12 -26 -13 -4 -25 -10 -28 -15 -3
-4 -11 1 -19 12 -7 12 -8 18 -2 14 7 -3 11 3 11 15 0 16 -4 20 -15 16 -9 -3
-18 0 -20 7 -7 18 -235 17 -254 -1 -12 -11 -17 -9 -36 14 -20 26 -24 26 -86
20 -35 -3 -89 -2 -119 3 -143 26 -238 50 -273 70 -21 11 -47 21 -58 21 -18 0
-20 5 -17 38 2 32 0 37 -17 34 -12 -1 -31 7 -44 19 -13 12 -40 26 -60 30 -75
16 -116 36 -115 58 0 17 -9 24 -47 35 -26 8 -57 20 -69 26 -32 17 -243 39
-338 35 -72 -3 -85 -7 -102 -27 -11 -13 -19 -32 -19 -43 1 -11 -2 -31 -6 -44
-8 -23 -10 -23 -74 -16 -36 4 -86 9 -111 11 -50 3 -173 28 -190 39 -14 9 6 35
27 35 11 0 11 3 1 13 -7 8 -20 12 -30 9 -10 -2 -18 0 -18 6 0 5 -19 10 -42 11
-24 1 -62 3 -86 5 l-43 3 22 -23 c14 -15 29 -22 40 -19 10 3 20 1 24 -5 4 -7
12 -7 26 0 22 12 26 -2 5 -19 -16 -13 -102 -8 -196 12 -36 8 -75 11 -85 7 -26
-10 -36 -3 -28 17 5 13 2 15 -16 10 -13 -3 -32 -1 -42 6 -14 9 -21 9 -30 0
-10 -10 -15 -9 -23 3 -7 9 -32 17 -61 19 -27 1 -51 8 -53 13 -2 7 -14 7 -35 1
-41 -12 -39 -12 -32 11 4 11 2 20 -4 20 -6 0 -11 -5 -11 -11 0 -5 -5 -7 -12
-3 -22 14 -99 12 -105 -1 -2 -8 -11 -11 -18 -9 -7 3 -16 1 -19 -5 -4 -6 -19
-5 -41 5 -19 8 -44 14 -55 14 -11 0 -20 4 -20 10 0 5 -3 9 -7 8 -12 -2 -43 13
-43 21 0 5 18 14 41 21 35 12 38 15 22 24 -23 13 -218 9 -281 -5 -26 -6 -67
-11 -92 -10 -24 0 -48 -5 -52 -12 -5 -8 -10 -9 -15 -2 -11 15 -129 19 -138 5
-3 -5 -11 -8 -16 -4 -5 3 -16 0 -24 -6 -8 -7 -27 -10 -42 -7 -39 7 -161 -41
-169 -67 -6 -18 -7 -18 -19 -3 -7 9 -25 17 -40 17 -15 0 -39 9 -54 19 -16 12
-36 18 -48 15 -12 -3 -24 -1 -27 5 -4 6 -19 11 -33 11 -17 0 -23 4 -20 14 3 7
1 18 -4 23 -6 6 -2 16 11 28 24 22 25 29 3 50 -15 16 -14 18 13 41 16 13 36
24 44 24 8 0 24 7 34 15 11 8 27 15 36 15 9 0 34 13 56 30 21 16 46 30 55 30
22 0 32 26 19 50 -13 25 -13 30 5 30 8 0 15 -5 15 -10 0 -6 11 -15 24 -20 39
-14 55 -49 58 -123 2 -42 8 -69 16 -72 6 -2 60 0 120 5 59 5 159 14 222 20 63
5 189 17 280 26 132 13 190 14 293 6 71 -5 134 -15 140 -21 6 -6 22 -11 36
-11 15 -1 44 -8 66 -16 76 -29 224 -62 228 -50 3 6 14 0 26 -14 16 -18 24 -21
30 -12 6 10 15 9 39 -4 18 -8 44 -14 60 -13 15 2 33 0 40 -4 13 -9 98 1 121
13 9 5 -6 13 -43 25 -31 10 -56 19 -56 20 0 1 36 1 80 1 51 -1 80 3 80 10 0
13 -67 35 -86 27 -8 -3 -14 0 -14 7 0 7 -8 9 -19 5 -11 -3 -22 -1 -26 4 -4 7
-41 8 -100 4 -105 -7 -125 1 -125 46 0 27 -13 34 -115 57 -16 4 -43 16 -61 26
-20 12 -74 23 -155 33 -122 14 -167 12 -181 -8 -8 -13 -23 -16 -105 -24 -35
-3 -63 -9 -63 -13 0 -4 -29 -7 -65 -7 -54 0 -63 2 -54 13 16 19 68 44 93 44
26 0 53 16 44 26 -4 3 -70 7 -148 8 -106 1 -140 4 -140 14 0 7 11 17 25 22 39
15 30 19 -33 15 -32 -3 -72 -1 -89 4 -34 10 -55 -2 -46 -25 3 -8 1 -14 -5 -14
-15 0 -22 26 -9 39 24 24 -36 10 -66 -15 -29 -25 -36 -26 -104 -21 -40 3 -75
2 -77 -2 -3 -4 -19 -8 -36 -9 -30 -2 -32 0 -26 22 10 42 -28 57 -139 54 -52
-1 -98 1 -102 6 -4 4 10 22 31 40 33 28 37 34 22 39 -10 4 -22 4 -27 1 -6 -3
-16 -1 -23 5 -11 9 -28 3 -76 -25 -34 -20 -65 -33 -68 -29 -14 13 169 157 243
191 48 22 426 134 453 134 6 0 12 1 12 3 0 1 -36 180 -81 397 -174 855 -217
1118 -429 2640 -27 195 -54 400 -60 455 -14 141 -32 245 -40 245 -36 0 -20
-852 16 -889 2 -2 0 -9 -5 -15 -6 -7 -6 -39 0 -81 5 -39 11 -95 14 -125 3 -48
3 -50 -4 -15 l-8 40 -2 -52 c0 -28 3 -54 9 -58 5 -3 7 -11 4 -19 -3 -7 0 -35
6 -62 6 -27 13 -152 16 -279 2 -126 7 -282 10 -345 3 -63 8 -176 11 -250 4
-104 9 -141 22 -160 20 -29 41 -236 33 -339 -5 -74 -17 -91 -72 -98 -22 -3
-37 -10 -34 -14 3 -5 10 -7 15 -4 5 4 9 2 9 -3 0 -15 -118 -32 -146 -22 -37
14 -64 12 -64 -5 0 -10 -10 -15 -26 -15 -15 0 -33 -8 -40 -17 -11 -15 -13 -15
-9 -2 5 14 -3 16 -61 14 -48 -2 -69 -7 -75 -18 -5 -9 -31 -18 -61 -22 -51 -7
-84 -27 -74 -44 7 -10 -41 -21 -95 -21 -38 0 -39 1 -38 33 2 30 2 30 6 5 4
-24 9 -28 39 -28 19 0 34 5 34 10 0 6 -13 10 -29 10 -18 0 -31 6 -35 18 -3 9
-9 22 -12 29 -3 6 3 13 13 16 14 4 13 5 -4 6 -17 1 -23 -5 -24 -21 -1 -17 -2
-19 -6 -5 -2 9 -9 17 -14 17 -5 0 -13 -8 -17 -17 -4 -12 -9 1 -12 37 -4 49 -7
55 -27 54 -16 0 -23 5 -23 18 0 12 -11 23 -30 29 -27 10 -30 15 -30 55 0 37 3
44 19 44 12 0 21 -8 24 -22 4 -20 4 -19 6 5 1 24 -3 27 -30 27 -22 0 -32 5
-36 20 -3 11 -9 17 -14 14 -5 -3 -7 -10 -4 -15 4 -5 1 -9 -4 -9 -7 0 -11 27
-11 70 0 66 -1 70 -22 70 -22 0 -23 2 -20 95 2 52 7 93 11 90 5 -2 6 -40 4
-83 -5 -72 -3 -80 14 -84 22 -6 53 13 53 31 0 6 -9 11 -19 11 -17 0 -21 10
-27 70 -5 49 -11 70 -20 70 -10 0 -14 13 -14 40 0 22 -4 40 -9 40 -6 0 -8 -9
-6 -20 2 -11 0 -20 -5 -20 -4 0 -10 17 -14 38 -15 104 -18 112 -37 112 -25 0
-42 33 -26 49 9 10 9 12 -3 9 -12 -2 -16 10 -20 55 -3 31 -8 57 -12 57 -5 0
-11 0 -15 0 -5 0 -9 20 -9 45 -1 33 3 45 15 48 14 4 13 5 -1 6 -15 1 -18 11
-18 56 0 30 -3 55 -7 55 -5 0 -7 -34 -7 -76 1 -46 -2 -71 -7 -63 -5 8 -9 54
-9 102 0 69 -3 89 -15 93 -11 5 -13 10 -5 19 8 9 6 17 -5 29 -13 12 -14 28 -9
80 4 36 3 73 -1 83 -5 10 -9 25 -10 33 -1 8 -12 35 -24 59 -11 25 -21 60 -21
78 0 18 -4 42 -10 53 -5 11 -14 29 -19 39 -6 10 -11 50 -12 87 -1 44 -7 75
-16 86 -8 9 -12 21 -9 26 6 9 -27 120 -46 155 -5 11 -11 33 -14 50 -2 18 -11
38 -21 45 -9 6 -13 12 -9 12 5 0 3 6 -3 13 -6 8 -15 46 -21 86 -6 40 -15 82
-21 94 -7 11 -13 50 -13 86 -3 96 -50 311 -68 311 -5 0 -8 7 -8 15 0 8 -15 17
-37 21 -21 4 -43 14 -50 23 -10 13 -12 13 -13 2 0 -21 -40 23 -40 45 0 9 -7
31 -16 49 -14 31 -18 33 -56 28 -68 -7 -127 32 -168 111 -14 28 -16 44 -10 62
5 13 13 24 18 24 5 0 10 35 11 78 3 116 8 154 18 161 4 3 13 17 19 31 10 22
17 25 62 25 28 0 52 2 55 5 7 8 -13 153 -23 165 -12 14 -5 103 19 245 29 171
46 228 80 271 17 21 31 44 31 51 0 8 6 22 14 33 7 11 16 32 20 47 3 15 17 39
31 54 14 15 25 36 25 46 0 11 4 27 9 37 13 23 -3 51 -19 35 -13 -13 -53 -6
-44 7 8 13 -22 9 -101 -13z m-376 -1619 c44 -27 118 -97 156 -148 17 -22 35
-41 41 -41 5 0 20 -19 32 -42 12 -24 34 -59 48 -78 14 -19 33 -46 42 -59 9
-13 26 -34 37 -46 11 -13 32 -36 47 -53 14 -17 33 -34 41 -39 30 -18 87 -113
87 -146 0 -18 7 -43 16 -55 19 -28 18 -30 -26 -33 -37 -3 -68 10 -90 35 -7 9
-27 16 -46 16 -18 0 -44 4 -58 10 -30 11 -31 9 -12 -28 16 -30 62 -67 186
-148 47 -31 90 -63 97 -71 18 -22 -19 -79 -57 -86 -31 -7 -90 9 -102 27 -4 6
-10 7 -14 4 -3 -4 7 -24 23 -45 17 -21 34 -51 40 -68 7 -22 17 -31 35 -33 32
-4 56 -29 64 -69 5 -27 4 -30 -18 -28 -12 1 -29 3 -36 4 -7 0 -23 12 -36 26
-18 19 -25 22 -29 11 -3 -9 -15 -12 -31 -9 -35 7 -33 -3 14 -62 30 -38 36 -51
24 -53 -8 -2 -23 3 -32 11 -9 8 -29 17 -43 20 -14 4 -38 18 -53 32 -15 14 -32
25 -39 25 -7 0 -29 16 -51 35 -21 19 -44 35 -51 35 -7 0 -18 7 -25 15 -6 8
-35 25 -63 38 -91 42 -187 113 -303 223 -42 40 -44 43 -38 87 6 38 2 53 -20
91 -16 27 -23 51 -19 63 11 30 46 58 70 55 20 -3 21 -1 14 26 -5 17 -5 35 0
43 5 8 9 46 8 85 -2 67 7 100 36 134 7 8 22 32 34 52 17 31 18 42 9 69 -8 24
-8 37 1 51 6 10 13 39 16 64 4 42 18 74 34 74 3 0 21 -9 40 -21z m-323 -899
c6 -6 25 -18 42 -28 17 -9 86 -60 152 -112 122 -95 173 -131 484 -339 93 -62
196 -141 230 -174 60 -60 60 -61 34 -65 -16 -2 -42 7 -67 22 -22 14 -44 26
-48 26 -5 0 -56 24 -114 53 -92 47 -124 69 -209 148 -9 8 -23 19 -31 22 -8 4
-30 20 -50 35 -20 15 -72 52 -115 83 -44 31 -90 67 -104 79 -14 12 -43 34 -65
48 -54 34 -165 142 -176 170 -14 37 11 58 37 32z m72 -296 c85 -45 214 -142
232 -173 7 -14 100 -117 157 -174 31 -31 104 -87 115 -87 5 0 21 -9 35 -20 30
-24 73 -27 73 -5 0 8 -10 20 -22 26 -25 13 -147 139 -148 152 0 4 9 7 20 7 36
0 133 -61 197 -124 35 -34 79 -77 99 -96 56 -54 91 -111 98 -160 4 -25 14 -62
23 -83 14 -33 15 -40 2 -47 -11 -8 -12 -15 -1 -42 10 -28 10 -35 -4 -45 -22
-16 -43 -4 -90 53 -53 64 -96 104 -111 104 -8 0 -16 14 -20 30 -4 21 -19 39
-50 60 -51 35 -53 35 -53 15 0 -13 -4 -14 -21 -5 -17 10 -18 14 -8 27 11 12 9
18 -11 34 -39 31 -67 40 -96 29 -16 -7 -23 -14 -18 -22 15 -24 59 -73 109
-120 45 -43 55 -48 98 -48 36 0 47 -4 47 -16 0 -11 -6 -14 -20 -9 -11 3 -20 2
-20 -3 0 -12 67 -72 79 -72 5 0 14 -14 22 -32 7 -17 30 -50 51 -72 21 -23 48
-55 61 -73 12 -18 30 -34 39 -35 16 -3 16 -5 0 -42 l-17 -38 -45 37 c-25 21
-58 44 -75 51 -16 7 -49 31 -73 53 -37 35 -69 55 -189 115 -12 6 -28 21 -34
34 -23 42 -89 43 -99 2 -7 -27 13 -104 32 -127 7 -9 17 -23 23 -33 45 -77 144
-190 165 -190 3 0 26 -28 50 -61 25 -34 60 -78 78 -99 17 -21 32 -46 32 -57 0
-12 7 -26 15 -33 10 -8 12 -17 6 -23 -5 -5 -6 -27 -3 -49 5 -37 3 -40 -17 -34
-11 3 -31 9 -42 12 -14 4 -19 2 -15 -5 9 -14 -11 -88 -25 -93 -6 -2 -8 -14 -4
-31 4 -15 11 -24 16 -22 4 3 8 -7 7 -22 -2 -97 36 -244 77 -293 7 -8 18 -40
24 -70 7 -30 28 -105 47 -166 68 -220 104 -467 74 -514 -11 -18 -16 -7 -24 60
-17 148 -31 204 -79 314 -9 21 -17 43 -17 49 0 5 -16 34 -35 63 -19 29 -35 57
-35 63 0 5 -8 16 -17 23 -22 16 -42 54 -46 89 -1 14 -24 47 -50 74 -26 27 -47
54 -47 59 0 14 -60 65 -102 87 -21 11 -38 24 -38 29 0 6 -11 15 -25 20 -14 5
-25 14 -25 20 0 5 -8 10 -18 10 -10 0 -26 6 -37 14 -30 20 -73 25 -86 10 -8
-10 -17 -10 -44 2 -30 12 -36 12 -49 -2 -17 -17 -14 -48 10 -96 8 -15 14 -37
14 -49 0 -37 39 -87 114 -147 117 -92 417 -397 410 -416 -9 -22 16 -52 28 -34
22 32 128 -135 128 -202 0 -47 -23 -80 -51 -73 -19 5 -21 3 -15 -33 3 -21 5
-40 6 -40 0 -1 21 -4 48 -8 26 -3 155 -33 287 -65 132 -33 283 -67 335 -76 52
-9 115 -24 140 -33 25 -9 48 -15 52 -14 3 1 28 -5 55 -13 26 -9 86 -18 133
-21 47 -3 89 -10 95 -15 5 -5 22 -9 37 -9 15 0 28 -5 28 -11 0 -5 -4 -8 -9 -4
-5 3 -12 1 -16 -5 -3 -5 -24 -10 -45 -10 -21 0 -42 -4 -45 -10 -3 -5 -20 -10
-37 -10 -35 0 -31 -12 4 -14 29 -1 36 -32 9 -41 -11 -3 -23 -15 -26 -26 -4
-10 -12 -19 -19 -19 -7 0 -28 -13 -47 -29 -28 -25 -31 -32 -20 -45 17 -20 5
-55 -22 -60 -32 -7 -87 -16 -129 -23 -21 -3 -38 -9 -38 -14 0 -14 -38 -11 -42
3 -4 10 -10 10 -32 0 -15 -6 -35 -12 -45 -12 -11 0 -22 -7 -25 -16 -5 -12 -14
-14 -38 -9 -17 4 -38 13 -45 21 -7 7 -23 16 -36 20 -12 3 -35 16 -51 27 -27
19 -30 19 -41 4 -17 -23 -20 -22 -45 18 -22 35 -20 77 3 72 7 -1 21 17 32 39
21 44 82 106 127 130 14 7 64 25 110 38 83 24 83 24 45 31 -192 37 -506 -140
-701 -395 -88 -115 -175 -253 -183 -292 -7 -34 -33 -37 -95 -9 -24 11 -73 31
-110 46 -83 33 -106 56 -89 88 17 33 230 249 338 345 51 45 90 82 87 82 -3 0
-36 -16 -73 -35 -79 -42 -281 -204 -451 -363 l-121 -113 -30 25 c-39 33 -48
33 -102 -4 -54 -36 -64 -37 -79 -5 -6 14 -15 25 -19 25 -5 0 -12 18 -15 41 -5
28 -10 36 -15 27 -13 -19 -29 8 -29 49 0 30 -26 91 -44 104 -5 4 -6 14 -3 23
4 9 3 16 -2 16 -10 0 -24 38 -22 58 1 6 -2 12 -6 12 -13 0 -15 61 -2 76 7 9 9
28 4 51 -4 21 -9 58 -11 83 -2 25 -9 59 -14 75 -5 17 -14 66 -20 110 -7 44
-16 88 -21 97 -5 9 -9 80 -10 157 0 77 -5 143 -10 146 -5 4 -9 17 -9 30 0 13
-4 27 -10 30 -5 3 -10 24 -10 46 0 21 5 39 10 39 6 0 10 15 10 34 0 35 32 72
52 60 25 -15 44 42 25 74 -7 10 -11 43 -22 154 -1 20 -6 41 -9 46 -3 5 6 18
19 28 22 17 25 26 25 86 0 39 -4 68 -10 68 -14 0 -12 48 2 52 8 3 5 15 -9 39
-12 19 -24 51 -28 72 -4 20 -11 37 -16 37 -5 0 -9 7 -9 16 0 9 -9 27 -20 41
-13 17 -17 34 -14 52 3 15 1 44 -4 64 -7 25 -7 39 0 43 5 4 8 19 6 35 -3 16 1
30 8 33 6 2 14 21 16 41 4 37 -11 69 -44 93 -26 19 -24 83 2 100 11 7 31 10
45 6 20 -5 27 -1 36 20 7 15 23 29 36 32 31 8 44 35 41 85 -2 46 -34 79 -74
79 -13 0 -24 5 -24 10 0 6 -6 10 -14 10 -8 0 -18 5 -22 12 -5 8 -2 9 11 4 10
-3 27 -4 37 0 15 4 18 12 13 31 -3 15 0 31 7 41 10 12 10 16 1 19 -9 3 -10 10
-3 23 6 12 6 46 0 97 -5 43 -11 92 -12 108 -1 17 -6 36 -11 43 -6 7 -7 16 -3
20 4 4 13 -1 20 -11 7 -9 19 -17 26 -17 7 0 32 -19 55 -42 70 -69 92 -88 103
-88 14 0 72 -71 72 -87 0 -7 9 -17 20 -23 11 -6 20 -17 20 -25 0 -8 4 -15 9
-15 14 0 81 -92 88 -120 3 -14 13 -36 23 -50 9 -14 23 -41 30 -60 8 -19 22
-42 31 -51 9 -9 22 -30 30 -47 8 -18 17 -32 21 -32 5 0 8 -4 8 -8 0 -5 43 -73
95 -153 53 -79 108 -164 124 -189 92 -145 163 -251 167 -248 7 8 -24 120 -39
136 -8 9 -18 33 -22 52 -8 41 -37 107 -70 160 -13 21 -22 40 -19 43 3 3 -6 24
-21 46 -14 23 -23 46 -20 51 3 4 -5 21 -18 37 -12 15 -28 40 -35 56 -6 15 -16
27 -21 27 -5 0 -12 12 -15 26 -9 33 -101 198 -121 214 -8 7 -15 17 -15 23 0 5
-22 40 -50 77 -27 37 -50 72 -50 78 0 19 -43 86 -72 113 -15 14 -28 31 -28 37
0 13 -57 62 -73 62 -7 0 -25 14 -40 30 -16 17 -33 30 -37 30 -5 0 -12 9 -15
21 -4 11 -18 24 -31 29 -13 5 -24 14 -24 20 0 6 -9 20 -19 32 -16 16 -17 25
-9 43 11 25 47 45 80 45 18 0 20 4 14 39 -4 25 -1 52 9 75 8 19 15 46 15 60 0
14 8 31 18 38 10 7 19 24 19 37 4 55 51 54 161 -5z m7922 -28 c8 -11 18 -12
36 -5 33 12 64 12 64 -1 0 -5 -11 -12 -25 -16 -14 -3 -25 -13 -25 -20 0 -8 -7
-17 -15 -20 -8 -4 -15 -15 -15 -25 0 -23 -42 -26 -60 -4 -9 11 -17 12 -31 4
-20 -10 -26 -39 -9 -39 5 0 7 -7 4 -15 -3 -8 1 -22 10 -30 32 -32 20 -47 -31
-41 -34 4 -42 3 -28 -3 11 -5 34 -10 52 -10 40 -1 63 -10 63 -25 0 -6 17 -11
40 -12 30 -1 41 3 45 17 11 32 -3 39 -61 33 -49 -6 -54 -5 -54 13 0 27 19 43
52 43 16 0 28 5 28 13 0 19 33 43 66 50 27 5 27 4 9 -9 -10 -8 -23 -14 -28
-14 -5 0 1 -15 12 -34 12 -18 21 -43 21 -54 0 -11 4 -23 10 -27 18 -11 -2 -35
-30 -35 -15 0 -33 -7 -40 -15 -20 -25 -2 -31 31 -11 26 15 33 16 40 5 5 -8 7
-16 6 -19 -2 -3 -10 -20 -18 -38 -12 -28 -19 -33 -44 -31 -60 4 -77 -1 -83
-23 -5 -21 -5 -21 -14 3 -6 15 -5 25 1 27 6 2 11 11 11 20 0 15 -2 15 -10 2
-8 -12 -10 -11 -10 7 0 20 -4 22 -32 16 -18 -3 -35 -9 -38 -13 -3 -4 -23 -13
-45 -20 -22 -7 -44 -16 -49 -21 -6 -5 -18 -9 -28 -9 -10 0 -21 -7 -24 -15 -4
-8 -13 -15 -21 -15 -10 0 -13 -6 -9 -16 3 -9 6 -19 6 -22 0 -4 5 0 11 8 9 13
10 13 6 0 -5 -22 -42 -19 -41 3 1 10 -5 17 -17 17 -10 0 -19 -2 -19 -4 0 -2
-3 -11 -6 -20 -4 -12 0 -16 15 -16 12 0 21 -3 21 -7 0 -11 -51 -53 -65 -53
-15 0 -76 -70 -62 -71 7 0 2 -4 -10 -9 -15 -6 -23 -18 -23 -34 0 -17 -7 -26
-26 -30 -25 -7 -26 -10 -21 -52 3 -30 1 -44 -7 -43 -25 3 -36 -2 -36 -16 0 -8
-7 -15 -16 -15 -8 0 -12 -4 -9 -10 3 -5 0 -10 -8 -10 -8 0 -18 7 -21 16 -4 12
-2 15 9 11 18 -8 48 21 38 36 -5 8 -9 6 -11 -5 -2 -12 -13 -18 -29 -18 -19 0
-24 -4 -21 -18 4 -14 -1 -17 -26 -16 -18 1 -22 -1 -8 -3 16 -3 22 -11 22 -32
0 -21 -6 -30 -22 -34 -21 -5 -21 -5 -5 7 9 7 17 22 16 32 0 18 -1 18 -9 -1
l-9 -20 -1 20 c-2 17 -3 16 -10 -5 -4 -14 -8 -40 -9 -59 -1 -31 1 -33 27 -27
15 3 21 3 15 0 -21 -9 -15 -21 13 -28 25 -7 25 -8 19 -69 -8 -69 -15 -88 -15
-38 0 26 -4 32 -17 29 -24 -4 -32 -68 -9 -68 9 0 16 -9 16 -20 0 -11 -7 -20
-15 -20 -9 0 -15 -9 -15 -25 0 -16 -6 -25 -15 -25 -14 0 -20 -35 -18 -97 1 -7
-10 -13 -23 -13 -15 0 -24 -6 -24 -15 0 -11 -12 -15 -50 -15 -36 0 -52 -4 -56
-15 -4 -8 -17 -15 -30 -15 -17 0 -24 -6 -24 -19 0 -21 -36 -28 -160 -34 -52
-2 -55 -3 -61 -32 l-7 -30 -1 30 c-1 17 -5 25 -9 19 -4 -6 -22 -10 -39 -8 -21
1 -31 -2 -26 -9 4 -7 0 -8 -11 -4 -10 4 -24 7 -32 7 -9 0 -13 3 -11 8 3 4 1
16 -4 27 -6 17 -8 17 -8 3 -1 -15 -11 -18 -65 -18 -53 0 -65 3 -68 18 -3 14
-5 13 -10 -5 -6 -22 -4 -23 69 -23 43 0 72 -4 68 -9 -3 -5 9 -11 27 -13 28 -2
34 -7 36 -31 4 -33 21 -31 34 2 7 21 6 22 -7 11 -12 -10 -15 -10 -15 3 0 22
16 30 42 21 19 -6 19 -7 5 -16 -10 -5 -17 -20 -17 -33 0 -15 -5 -24 -12 -23
-7 2 -14 -7 -16 -19 -2 -16 2 -23 12 -23 9 0 16 -4 16 -10 0 -5 11 -10 25 -10
21 0 25 -5 25 -29 0 -26 4 -30 33 -34 l32 -5 -35 2 c-30 1 -35 5 -38 29 -2 19
-9 27 -23 27 -10 0 -19 -4 -19 -10 0 -5 7 -10 15 -10 13 0 19 -16 17 -41 -1
-3 4 -6 11 -7 44 -4 57 -8 61 -19 3 -7 17 -13 31 -13 21 0 25 -4 24 -27 -2
-25 -2 -25 -6 -5 -3 17 -10 22 -25 20 -12 -2 -23 -8 -25 -15 -3 -7 4 -10 19
-7 l23 5 -22 -10 c-13 -6 -23 -18 -24 -28 0 -16 -1 -16 -9 2 l-9 20 0 -20 c-1
-17 -3 -17 -11 -5 -8 13 -10 12 -10 -2 0 -13 8 -18 28 -19 l27 -1 -30 -8 c-16
-4 -42 -8 -57 -9 -23 -1 -28 3 -28 24 0 23 -3 25 -42 23 l-43 -1 38 -4 c29 -3
37 -9 37 -24 0 -10 -5 -19 -12 -19 -6 0 -8 -3 -4 -7 4 -4 22 -6 41 -5 l35 3 0
-46 c0 -41 -2 -45 -25 -45 -20 0 -25 -5 -25 -25 0 -23 -3 -25 -50 -25 -47 0
-50 2 -50 25 0 21 -5 25 -32 27 l-33 1 33 4 c32 4 46 23 17 23 -8 0 -15 8 -16
18 -1 11 -4 9 -9 -8 -7 -20 -8 -16 -9 23 -1 45 -2 47 -31 47 -23 0 -30 4 -30
20 0 16 7 20 30 20 30 0 30 1 30 55 l0 55 40 0 c38 0 40 2 40 30 0 17 5 30 10
30 6 0 10 27 10 60 l0 60 -30 0 c-20 0 -30 -5 -30 -15 0 -11 -12 -15 -50 -15
-47 0 -50 2 -50 25 0 22 -4 25 -35 25 -19 0 -35 5 -35 10 0 6 7 10 15 10 8 0
15 6 15 13 0 20 -17 40 -28 33 -6 -3 -15 6 -20 21 -9 23 -11 24 -12 8 -2 -17
-3 -16 -9 5 -5 17 -14 25 -30 24 -14 0 -20 4 -17 12 3 7 -6 23 -19 36 -14 13
-25 33 -25 45 0 12 -16 37 -35 56 -39 38 -50 90 -17 85 15 -3 17 6 13 97 -3
105 -6 119 -22 110 -10 -7 -10 -6 -13 48 -1 20 3 37 9 37 5 0 2 7 -7 14 -10 7
-18 16 -18 20 0 4 -7 14 -15 22 -8 9 -15 19 -15 24 0 4 33 19 73 34 86 30 114
37 507 131 392 93 532 127 605 149 116 34 315 87 339 90 63 9 72 16 68 52 -4
36 -4 36 -87 38 -47 1 -62 29 -21 40 17 4 26 14 28 32 3 23 8 27 42 30 45 4
62 14 24 14 -21 0 -25 4 -21 20 4 14 14 20 34 20 26 0 29 4 29 30 0 22 6 33
23 40 32 13 43 12 57 -4z m-340 -6 c0 -11 -40 -34 -47 -26 -3 3 -3 12 0 21 7
16 47 21 47 5z m105 -40 c3 -5 -1 -10 -9 -10 -9 0 -16 5 -16 10 0 6 4 10 9 10
6 0 13 -4 16 -10z m-1100 -250 c3 -5 1 -10 -4 -10 -6 0 -11 5 -11 10 0 6 2 10
4 10 3 0 8 -4 11 -10z m-81 -66 c27 -11 18 -30 -25 -49 -22 -10 -47 -30 -54
-44 -8 -14 -14 -21 -15 -14 0 15 -29 10 -40 -6 -12 -21 -32 -2 -27 25 2 14 0
27 -4 30 -5 3 -9 16 -9 29 0 17 7 25 23 28 36 7 134 8 151 1z m121 -4 c3 -5 1
-10 -4 -10 -6 0 -11 5 -11 10 0 6 2 10 4 10 3 0 8 -4 11 -10z m-35 -24 c0 -21
-20 -30 -33 -17 -9 9 -8 14 3 21 21 14 30 12 30 -4z m1180 -44 c0 -4 -9 -8
-20 -8 -11 0 -20 4 -20 8 0 4 9 8 20 8 11 0 20 -4 20 -8z m-185 -102 c3 -5 1
-10 -4 -10 -6 0 -11 5 -11 10 0 6 2 10 4 10 3 0 8 -4 11 -10z m-108 -112 c-3
-7 -5 -2 -5 12 0 14 2 19 5 13 2 -7 2 -19 0 -25z m-6250 -45 c-2 -16 -4 -5 -4
22 0 28 2 40 4 28 2 -13 2 -35 0 -50z m6235 -6 c4 -20 1 -23 -19 -19 -22 4
-30 21 -16 35 14 14 31 6 35 -16z m-6162 -108 c0 -24 -20 -25 -21 -1 0 14 -2
14 -9 -3 -8 -18 -9 -17 -9 7 -1 21 3 25 19 21 11 -3 20 -14 20 -24z m6015
-139 c3 -5 1 -10 -4 -10 -6 0 -11 5 -11 10 0 6 2 10 4 10 3 0 8 -4 11 -10z
m22 -112 c-2 -24 -4 -5 -4 42 0 47 2 66 4 43 2 -24 2 -62 0 -85z m-5926 -55
c15 -4 17 -9 8 -19 -20 -24 -36 -5 -36 44 0 34 1 38 4 13 3 -22 11 -35 24 -38z
m4888 45 c0 -21 -1 -21 -8 -4 -7 18 -8 18 -14 3 -3 -9 -14 -16 -24 -16 -17 1
-17 2 0 6 9 2 17 11 17 19 0 8 7 14 15 14 9 0 15 -9 14 -22z m-5439 -28 c0 -5
-4 -10 -10 -10 -5 0 -10 5 -10 10 0 6 5 10 10 10 6 0 10 -4 10 -10z m7200 1
c0 -5 -5 -22 -10 -37 -7 -17 -7 -38 -1 -58 5 -17 6 -51 2 -76 l-8 -45 -7 35
c-4 19 -8 52 -9 72 -1 21 -6 38 -11 38 -5 0 -6 -43 -3 -97 6 -91 5 -95 -8 -63
-24 61 -13 212 16 231 18 12 39 11 39 0z m-1800 -22 c0 -11 -4 -17 -10 -14 -5
3 -10 13 -10 21 0 8 5 14 10 14 6 0 10 -9 10 -21z m1839 -174 c0 -5 -4 -3 -9
5 -5 8 -9 22 -9 30 0 16 17 -16 18 -35z m61 -139 c0 -2 -12 -11 -27 -20 l-28
-17 24 20 c23 21 31 25 31 17z m-6017 -83 c-7 -2 -19 -2 -25 0 -7 3 -2 5 12 5
14 0 19 -2 13 -5z m-216 -39 c-3 -3 -12 -4 -19 -1 -8 3 -5 6 6 6 11 1 17 -2
13 -5z m-187 -94 c0 -5 -5 -10 -11 -10 -5 0 -7 5 -4 10 3 6 8 10 11 10 2 0 4
-4 4 -10z m4500 -130 c-13 -25 -13 -30 3 -24 8 3 19 -6 25 -22 10 -21 15 -24
27 -14 12 10 15 9 15 -4 0 -9 8 -16 20 -16 15 0 20 -7 21 -27 l1 -28 7 25 c9
35 31 37 30 3 0 -25 -1 -26 -10 -8 l-9 20 3 -20 c1 -12 11 -21 25 -23 12 -2
22 -10 22 -19 0 -12 7 -14 30 -9 17 3 30 1 30 -4 0 -5 -10 -11 -22 -13 -17 -3
-14 -5 10 -6 27 -1 32 -5 32 -26 0 -14 -4 -25 -10 -25 -6 0 -10 -35 -10 -85 0
-84 0 -85 25 -85 18 0 25 -5 25 -20 0 -14 -7 -20 -24 -20 -13 0 -27 -6 -30
-12 -4 -9 -5 -8 -5 2 3 41 -13 56 -25 24 -4 -10 -2 -13 6 -8 7 4 8 3 4 -4 -4
-7 -14 -12 -22 -12 -12 0 -15 14 -13 70 1 39 6 73 10 76 5 2 6 10 3 17 -3 8 0
24 6 38 8 20 10 21 9 4 -4 -68 2 -155 11 -155 6 0 10 34 10 81 0 66 -3 84 -17
94 -9 7 -23 10 -31 7 -10 -3 -10 -7 -2 -12 7 -4 9 -17 4 -33 -7 -30 -24 -36
-25 -9 0 14 -2 14 -9 -3 -14 -31 -11 -55 5 -55 12 0 15 -13 15 -60 0 -47 -3
-60 -15 -60 -14 0 -19 -11 -16 -37 1 -7 -7 -13 -19 -13 -14 0 -20 7 -20 23 0
18 -16 29 -80 61 -55 26 -97 56 -132 92 -29 31 -61 54 -72 54 -12 0 -39 20
-63 45 -35 38 -42 53 -45 93 -4 55 21 102 54 102 11 0 37 4 57 10 20 5 49 12
65 15 21 5 26 9 17 15 -17 10 5 16 66 17 38 1 41 -1 33 -17z m1788 -384 c-2
-45 -7 -71 -15 -74 -15 -4 -18 159 -6 244 l7 49 8 -75 c5 -41 7 -106 6 -144z
m-1608 68 c-6 -6 -7 -14 -3 -18 4 -4 0 -4 -10 0 -23 9 -22 30 2 30 14 0 17 -4
11 -12z m23 -162 c-25 -4 -30 -17 -10 -25 7 -4 6 -6 -4 -6 -9 -1 -19 8 -22 18
-6 26 -2 29 31 22 25 -5 25 -6 5 -9z m105 -43 c15 -1 15 -2 0 -6 -10 -2 -18
-11 -18 -19 0 -10 -13 -14 -50 -14 -27 0 -50 3 -50 8 0 4 21 6 46 4 34 -3 45
-1 43 9 -1 8 0 30 1 49 l3 35 4 -32 c3 -22 10 -33 21 -34z m-4261 -513 c-17
-17 -32 -22 -22 -7 3 5 0 13 -7 17 -8 5 -6 10 8 15 27 10 40 -6 21 -25z m821
-448 c2 -12 -2 -15 -18 -11 -12 3 -25 0 -29 -6 -5 -7 -29 -13 -54 -14 -38 -2
-47 1 -47 15 0 32 142 48 148 16z m-1348 -42 c0 -7 -6 -19 -14 -25 -19 -16
-32 5 -16 24 16 19 30 19 30 1z m1696 -33 c-10 -10 -19 5 -10 18 6 11 8 11 12
0 2 -7 1 -15 -2 -18z m-2336 -83 c0 -5 -4 -10 -10 -10 -5 0 -10 5 -10 10 0 6
5 10 10 10 6 0 10 -4 10 -10z m56 -30 c7 0 19 -10 26 -22 12 -22 38 -96 38
-110 0 -16 -30 -7 -56 17 -14 13 -30 23 -34 20 -13 -8 -19 34 -10 67 9 30 9
30 -10 13 -19 -17 -20 -17 -20 0 0 10 8 26 18 35 16 17 18 16 26 -1 5 -11 15
-19 22 -19z m3009 30 c3 -5 1 -10 -4 -10 -6 0 -11 5 -11 10 0 6 2 10 4 10 3 0
8 -4 11 -10z m-1485 -30 c136 -20 384 -116 396 -153 3 -11 1 -23 -6 -27 -15
-9 -160 -8 -175 1 -5 4 -25 10 -42 14 -24 5 -33 3 -33 -6 0 -8 -6 -5 -13 6
-10 13 -21 16 -39 12 -19 -5 -28 -2 -32 9 -4 11 -11 13 -19 7 -6 -4 -23 -7
-37 -6 -53 6 -70 9 -76 16 -11 11 -44 8 -44 -4 0 -5 -5 -7 -10 -4 -6 4 -8 11
-5 16 4 5 2 9 -4 9 -5 0 -11 -4 -13 -10 -2 -6 -18 -6 -43 0 -22 5 -41 7 -43 5
-3 -2 8 -25 23 -50 29 -51 25 -75 -6 -36 -11 14 -30 30 -42 36 -12 6 -21 19
-20 29 1 13 -2 15 -10 7 -8 -8 -16 -6 -29 6 -14 13 -20 13 -33 3 -13 -11 -15
-9 -15 14 l0 26 -40 -25 c-38 -24 -77 -25 -63 -1 4 6 -8 -2 -27 -18 -19 -16
-40 -38 -47 -50 -9 -15 -12 -17 -13 -5 0 25 53 100 103 147 l47 42 177 -1 c98
0 203 -4 233 -9z m-1590 -122 c25 -23 56 -42 70 -43 14 -1 39 -3 55 -4 23 -1
27 -3 15 -11 -13 -8 -12 -10 3 -10 9 0 17 5 17 10 0 14 37 13 46 -2 5 -8 0 -9
-14 -6 -32 9 -37 -10 -13 -43 17 -23 19 -29 6 -29 -19 0 -19 -4 1 -42 14 -28
14 -32 0 -47 -15 -14 -18 -14 -26 -1 -7 11 -25 14 -76 12 -45 -2 -64 0 -59 7
3 6 2 11 -3 11 -14 0 -102 91 -102 104 0 7 -5 17 -11 23 -6 6 -7 30 -3 62 6
43 10 51 28 51 11 0 41 -19 66 -42z m4333 -65 c-7 -2 -19 -2 -25 0 -7 3 -2 5
12 5 14 0 19 -2 13 -5z m-3178 -153 c0 -23 -69 -20 -73 3 -3 16 2 18 35 15 26
-2 38 -8 38 -18z m2495 5 c33 -17 80 -74 80 -98 0 -31 -37 -40 -94 -22 -28 9
-58 15 -66 13 -22 -5 -22 100 0 112 22 14 47 12 80 -5z m1800 9 c0 -9 -61 -64
-71 -64 -30 0 22 67 54 69 9 1 17 -2 17 -5z m-1923 -26 c-3 -8 -6 -5 -6 6 -1
11 2 17 5 13 3 -3 4 -12 1 -19z m-1527 -139 c63 -5 138 -17 165 -24 81 -23
335 -56 546 -70 298 -21 460 -55 517 -108 l23 -21 -24 -22 c-30 -27 -126 -48
-185 -40 -27 4 -50 2 -58 -5 -10 -9 -15 -8 -20 4 -3 9 -18 15 -39 15 -19 0
-50 5 -70 12 -20 7 -47 9 -61 6 -17 -5 -26 -2 -31 10 -3 9 -8 11 -12 5 -4 -5
-31 -10 -61 -10 -30 0 -89 1 -130 1 -41 0 -104 0 -139 -1 -53 -1 -68 2 -87 20
-15 14 -38 22 -71 24 -26 1 -79 6 -116 10 -57 6 -68 10 -64 24 3 13 -4 17 -35
17 -22 1 -66 15 -103 34 -35 18 -84 35 -109 37 -25 3 -46 10 -46 14 0 19 -49
8 -91 -20 -24 -17 -45 -28 -48 -26 -8 8 22 36 88 80 75 51 78 51 261 34z
m4645 -198 c8 -27 -10 -73 -35 -90 -14 -8 -22 -11 -18 -6 11 12 -11 35 -28 28
-8 -3 -14 0 -14 6 0 6 9 11 20 11 17 0 20 7 20 39 0 35 2 38 25 34 13 -3 27
-13 30 -22z m363 -108 c2 -7 -2 -13 -8 -13 -7 0 -20 -10 -30 -22 -10 -13 -22
-20 -26 -15 -4 4 -2 13 4 19 7 7 12 20 12 31 0 13 6 18 22 15 12 -2 23 -9 26
-15z m-398 -45 c0 -10 -4 -18 -10 -18 -5 0 -10 15 -10 33 0 24 3 28 10 17 5
-8 10 -23 10 -32z"/>
<path d="M2362 5433 c2 -10 11 -19 20 -21 12 -2 15 2 11 17 -7 25 -36 28 -31
4z"/>
<path d="M1832 4822 c4 -19 29 -23 35 -6 2 6 -6 14 -17 17 -16 4 -20 1 -18
-11z"/>
<path d="M2580 3746 c0 -17 39 -48 52 -40 12 8 10 21 -8 38 -19 20 -44 21 -44
2z"/>
<path d="M9960 6076 c0 -2 9 -6 20 -9 11 -3 20 -1 20 4 0 5 -9 9 -20 9 -11 0
-20 -2 -20 -4z"/>
<path d="M9978 5983 c6 -2 18 -2 25 0 6 3 1 5 -13 5 -14 0 -19 -2 -12 -5z"/>
<path d="M9910 5959 c0 -5 5 -7 10 -4 6 3 10 8 10 11 0 2 -4 4 -10 4 -5 0 -10
-5 -10 -11z"/>
<path d="M9973 5953 c9 -2 23 -2 30 0 6 3 -1 5 -18 5 -16 0 -22 -2 -12 -5z"/>
<path d="M9280 5280 c0 -5 5 -10 10 -10 6 0 10 5 10 10 0 6 -4 10 -10 10 -5 0
-10 -4 -10 -10z"/>
<path d="M9317 5190 c-3 -11 -1 -20 4 -20 5 0 9 9 9 20 0 11 -2 20 -4 20 -2 0
-6 -9 -9 -20z"/>
<path d="M9340 5156 c0 -16 7 -25 23 -29 21 -6 21 -5 3 8 -11 8 -16 21 -13 30
4 8 2 15 -3 15 -6 0 -10 -11 -10 -24z"/>
<path d="M9311 5074 c0 -11 3 -14 6 -6 3 7 2 16 -1 19 -3 4 -6 -2 -5 -13z"/>
<path d="M9320 5030 c0 -13 5 -18 15 -14 8 4 15 10 15 14 0 4 -7 10 -15 14
-10 4 -15 -1 -15 -14z"/>
<path d="M9260 4945 c0 -52 -1 -55 -25 -55 -16 0 -25 -6 -25 -15 0 -8 -7 -15
-15 -15 -8 0 -15 -4 -15 -9 0 -5 -8 -12 -17 -14 -10 -3 3 -5 28 -6 33 -1 49 3
53 14 3 8 12 15 20 15 17 0 26 22 26 66 0 22 6 37 15 40 27 11 17 34 -15 34
-30 0 -30 -1 -30 -55z m45 35 c-4 -6 -10 -8 -14 -6 -4 3 -8 -14 -10 -37 -2
-46 -36 -92 -70 -94 -19 -2 -19 -1 -1 17 10 10 26 20 37 22 14 2 19 14 21 56
3 44 6 52 23 52 11 0 17 -5 14 -10z"/>
<path d="M8953 4833 c10 -2 16 -12 15 -20 -3 -13 9 -16 77 -14 103 3 112 11
12 11 -62 0 -77 3 -77 15 0 9 -9 15 -22 14 -18 -1 -19 -2 -5 -6z"/>
<path d="M9058 4779 c-2 -7 -36 -14 -83 -16 -105 -6 -118 -11 -29 -12 89 -1
134 7 134 25 0 17 -17 19 -22 3z"/>
<path d="M8770 4765 c0 -8 -8 -15 -17 -16 -15 0 -15 -2 2 -8 25 -10 36 -5 29
14 -4 11 7 15 48 18 l53 3 -57 2 c-46 2 -58 -1 -58 -13z"/>
<path d="M8621 4693 c-1 -20 4 -23 38 -23 38 0 63 22 40 35 -5 4 -8 1 -7 -7 2
-8 -9 -14 -29 -16 -23 -2 -32 1 -36 15 -4 14 -5 13 -6 -4z"/>
<path d="M8780 4580 c0 -5 7 -10 15 -10 9 0 12 -6 9 -15 -4 -8 -4 -15 -1 -15
16 0 13 31 -3 40 -14 7 -20 7 -20 0z"/>
<path d="M8760 4535 c0 -13 -8 -28 -17 -34 -16 -9 -16 -10 3 -8 15 1 21 9 22
34 2 18 0 33 -3 33 -3 0 -5 -11 -5 -25z"/>
<path d="M8680 4468 c0 -28 3 -33 25 -33 14 0 25 3 25 8 0 4 -9 7 -20 7 -25 0
-27 37 -2 43 13 4 11 5 -5 6 -19 1 -23 -4 -23 -31z"/>
<path d="M8812 4473 c64 -3 88 -7 92 -18 3 -8 1 -15 -4 -15 -14 0 -12 -17 3
-23 16 -6 20 45 4 55 -7 4 -50 7 -97 6 l-85 -2 87 -3z"/>
<path d="M8689 4413 c0 -5 -2 -16 -4 -26 -2 -11 0 -16 3 -12 4 4 7 10 7 13 0
4 4 13 8 20 5 7 4 12 -2 12 -6 0 -11 -3 -12 -7z"/>
<path d="M8620 4380 c0 -5 11 -10 25 -10 14 0 25 5 25 10 0 6 -11 10 -25 10
-14 0 -25 -4 -25 -10z"/>
<path d="M8682 4340 c0 -14 2 -19 5 -12 2 6 2 18 0 25 -3 6 -5 1 -5 -13z"/>
<path d="M8850 4305 c0 -16 -6 -25 -15 -25 -8 0 -15 -5 -15 -11 0 -5 -5 -7
-12 -3 -7 4 -8 3 -4 -4 4 -7 2 -12 -3 -12 -6 0 -11 -7 -11 -15 0 -22 -47 -19
-53 3 -4 13 -5 11 -6 -5 -1 -20 4 -23 38 -23 33 0 40 4 43 23 2 14 11 23 26
25 18 3 22 10 22 38 0 19 -2 34 -5 34 -3 0 -5 -11 -5 -25z"/>
<path d="M9505 5460 c-3 -5 -1 -10 4 -10 6 0 11 5 11 10 0 6 -2 10 -4 10 -3 0
-8 -4 -11 -10z"/>
<path d="M8451 4213 c-1 -17 -7 -23 -26 -23 -21 0 -25 -4 -24 -27 2 -24 2 -25
6 -5 6 28 39 30 39 2 0 -11 -7 -20 -15 -20 -8 0 -12 -3 -8 -6 3 -3 15 -3 28 1
16 5 18 9 8 15 -11 7 -10 13 5 29 10 11 24 18 30 14 6 -4 4 2 -4 13 -22 29
-24 30 -17 12 3 -10 2 -20 -3 -23 -5 -3 -11 5 -13 17 l-4 23 -2 -22z"/>
<path d="M8551 4164 c0 -11 3 -14 6 -6 3 7 2 16 -1 19 -3 4 -6 -2 -5 -13z"/>
<path d="M8547 3953 c6 -14 43 -18 43 -4 0 5 -11 11 -24 13 -17 4 -23 1 -19
-9z"/>
<path d="M8570 8683 c-40 -7 -124 -35 -135 -45 -7 -6 -3 -14 10 -24 23 -17 64
-14 182 16 98 24 109 34 48 41 -27 3 -57 8 -65 11 -8 3 -26 3 -40 1z"/>
<path d="M7120 8245 c0 -8 4 -15 9 -15 5 0 11 7 15 15 3 9 0 15 -9 15 -8 0
-15 -7 -15 -15z"/>
<path d="M5673 7885 c0 -22 2 -30 4 -17 2 12 2 30 0 40 -3 9 -5 -1 -4 -23z"/>
<path d="M7380 6980 c0 -11 4 -20 8 -20 4 0 8 9 8 20 0 11 -4 20 -8 20 -4 0
-8 -9 -8 -20z"/>
<path d="M7350 6791 c0 -17 2 -31 4 -31 8 0 13 51 5 56 -5 3 -9 -9 -9 -25z"/>
<path d="M11615 6572 c-236 -147 -282 -179 -258 -183 31 -5 72 -4 94 2 41 11
56 -4 36 -34 -23 -36 0 -42 67 -16 63 23 88 46 65 60 -8 5 -20 9 -28 9 -19 0
30 37 72 55 19 8 49 26 66 41 28 23 31 32 31 80 0 45 -3 54 -18 54 -9 0 -67
-31 -127 -68z"/>
<path d="M11789 6126 c-41 -28 -99 -66 -127 -84 -29 -18 -52 -37 -52 -41 0 -4
12 -14 27 -22 20 -11 27 -11 30 -1 3 6 9 12 15 12 30 0 204 171 187 183 -2 2
-38 -20 -80 -47z"/>
<path d="M9300 6100 c0 -5 5 -10 10 -10 6 0 10 5 10 10 0 6 -4 10 -10 10 -5 0
-10 -4 -10 -10z"/>
<path d="M9085 6070 c-3 -5 -2 -10 4 -10 5 0 13 5 16 10 3 6 2 10 -4 10 -5 0
-13 -4 -16 -10z"/>
<path d="M7190 6044 c0 -8 5 -12 10 -9 6 3 10 10 10 16 0 5 -4 9 -10 9 -5 0
-10 -7 -10 -16z"/>
<path d="M3285 5620 c-3 -5 -1 -10 4 -10 6 0 11 5 11 10 0 6 -2 10 -4 10 -3 0
-8 -4 -11 -10z"/>
<path d="M11935 5602 c-9 -6 -41 -49 -59 -80 -6 -10 2 -11 33 -6 37 6 40 5 47
-20 8 -34 25 -33 64 4 35 33 31 55 -9 47 -31 -7 -58 11 -63 41 -1 12 -7 18
-13 14z"/>
<path d="M11570 5458 c-58 -34 -129 -74 -158 -91 -29 -16 -59 -38 -65 -49 -7
-10 -37 -33 -67 -50 -30 -17 -82 -53 -115 -79 -33 -26 -78 -56 -100 -68 -57
-31 -113 -81 -97 -88 7 -3 17 -16 23 -30 5 -15 16 -23 26 -22 10 2 45 -1 78
-5 53 -6 67 -4 119 19 32 14 68 38 80 53 50 65 271 269 373 345 61 45 112 89
112 98 1 16 -38 30 -83 28 -11 0 -68 -27 -126 -61z"/>
<path d="M11830 5425 c-16 -17 -21 -31 -17 -47 5 -20 -7 -35 -73 -96 -70 -65
-118 -127 -106 -140 3 -2 16 -2 29 2 24 6 167 161 167 182 0 5 14 20 30 32 29
22 41 52 20 52 -5 0 -10 6 -10 14 0 26 -16 26 -40 1z"/>
<path d="M11850 4996 c-19 -8 -58 -23 -86 -34 -28 -12 -76 -24 -105 -27 -50
-6 -70 -12 -141 -46 -54 -25 -268 -254 -268 -287 0 -5 -21 -32 -46 -58 -55
-59 -84 -103 -84 -128 0 -16 6 -18 45 -14 56 7 155 78 243 177 57 64 119 114
205 165 18 10 34 21 37 25 7 9 250 127 280 136 14 4 31 12 38 17 14 12 17 64
4 72 -23 14 -90 15 -122 2z"/>
<path d="M3483 4944 c-1 -24 1 -45 5 -48 4 -2 8 15 10 39 1 24 -1 46 -5 48 -4
3 -9 -15 -10 -39z"/>
<path d="M3520 4924 c0 -17 6 -24 20 -24 13 0 20 7 20 19 0 10 -9 21 -20 24
-16 4 -20 0 -20 -19z m30 -4 c0 -5 -4 -10 -10 -10 -5 0 -10 5 -10 10 0 6 5 10
10 10 6 0 10 -4 10 -10z"/>
<path d="M3532 4786 c2 -22 9 -41 16 -44 9 -3 11 5 7 30 -9 50 -27 61 -23 14z"/>
<path d="M3582 4760 c0 -14 2 -19 5 -12 2 6 2 18 0 25 -3 6 -5 1 -5 -13z"/>
<path d="M10540 4670 c0 -5 5 -10 10 -10 6 0 10 5 10 10 0 6 -4 10 -10 10 -5
0 -10 -4 -10 -10z"/>
<path d="M3960 4656 c0 -8 8 -14 19 -13 11 0 17 6 14 14 -7 18 -33 17 -33 -1z"/>
<path d="M3725 4640 c3 -5 8 -10 11 -10 2 0 4 5 4 10 0 6 -5 10 -11 10 -5 0
-7 -4 -4 -10z"/>
<path d="M4064 4641 c3 -5 15 -7 26 -4 28 7 25 13 -6 13 -14 0 -23 -4 -20 -9z"/>
<path d="M3740 4600 c0 -15 7 -20 26 -20 23 0 25 -3 20 -25 -5 -19 -3 -23 9
-18 9 3 14 12 11 20 -3 8 -2 12 3 9 5 -3 14 1 21 9 7 8 23 15 36 15 15 0 24 6
24 15 0 12 -15 15 -75 15 -68 0 -75 -2 -75 -20z m123 3 c-12 -2 -27 -10 -33
-18 -11 -14 -44 -10 -35 5 2 4 -7 5 -20 2 -15 -2 -25 0 -25 7 0 7 24 11 68 10
37 -1 57 -4 45 -6z"/>
<path d="M10998 4128 c6 -41 -9 -48 -105 -47 -88 1 -100 -2 -112 -33 -7 -19
-8 -19 -24 -4 -15 15 -17 15 -34 -11 -23 -35 -58 -73 -68 -73 -4 0 -16 -11
-26 -24 -11 -14 -27 -23 -36 -20 -21 4 -213 -151 -228 -184 -5 -12 -15 -20
-21 -18 -12 4 -44 -23 -44 -37 0 -15 -77 -76 -96 -77 -12 0 -27 -7 -34 -15 -7
-8 -18 -15 -25 -15 -7 0 -16 -7 -19 -16 -3 -9 -12 -14 -19 -11 -23 7 -36 -27
-38 -98 -2 -66 -2 -67 -9 -25 -9 57 -10 45 -14 -122 l-4 -138 27 7 c14 3 76
23 136 44 120 42 212 63 320 75 87 9 172 50 211 102 39 51 62 69 172 130 52
30 101 60 108 67 21 20 70 33 158 40 77 6 177 25 243 46 31 10 32 11 18 33 -8
12 -12 25 -9 28 11 12 -32 26 -101 33 -109 10 -309 -38 -418 -101 -74 -43 -82
-49 -90 -61 -4 -7 -17 -13 -27 -13 -11 0 -20 -7 -20 -15 0 -8 -21 -25 -47 -37
-29 -14 -53 -34 -61 -50 -13 -28 -47 -38 -54 -17 -3 9 -14 8 -43 -1 -56 -18
-85 -39 -85 -61 0 -14 -10 -20 -40 -25 -22 -4 -45 -12 -51 -20 -6 -7 -17 -10
-25 -7 -7 3 -17 -2 -20 -11 -3 -9 -12 -16 -20 -16 -8 0 -37 -16 -64 -35 -41
-29 -52 -33 -56 -20 -13 32 103 155 146 155 6 0 32 16 57 35 25 19 50 35 55
35 5 0 24 11 42 25 18 14 39 25 46 25 8 0 23 8 34 19 12 10 48 28 81 40 33 12
101 46 150 76 121 72 242 124 339 145 45 9 90 21 101 26 11 5 101 9 200 9 143
-1 201 -5 285 -22 58 -12 123 -24 144 -28 21 -4 48 -13 60 -20 23 -15 198 -87
201 -83 1 2 9 23 18 48 19 51 22 106 7 144 -21 56 -183 128 -330 146 -52 6
-120 18 -150 26 -36 9 -130 15 -270 18 -175 3 -222 7 -254 20 -21 10 -48 15
-58 13 -19 -5 -67 6 -99 23 -12 6 -14 3 -11 -22z m-834 -714 c8 -61 7 -116 -2
-130 -4 -6 -21 -14 -38 -17 -29 -6 -32 -4 -43 32 -14 47 -14 71 -1 71 6 0 10
16 10 35 0 35 18 54 51 55 12 0 18 -13 23 -46z m441 9 c-3 -16 -14 -32 -23
-38 -21 -12 -62 -16 -62 -6 0 15 25 31 47 31 16 0 23 6 23 20 0 11 5 20 11 20
7 0 9 -10 4 -27z m-335 -2 c0 -17 -49 -67 -50 -52 0 8 10 25 22 38 24 25 28
27 28 14z m-203 -203 c-3 -7 -5 -2 -5 12 0 14 2 19 5 13 2 -7 2 -19 0 -25z"/>
<path d="M5626 3535 c6 -15 4 -16 -14 -6 -15 8 -28 9 -40 2 -10 -5 -36 -12
-58 -14 -72 -9 -119 -20 -139 -33 -12 -8 -52 -18 -90 -24 -39 -5 -86 -13 -106
-16 -20 -3 -39 -2 -42 3 -6 10 -139 -1 -166 -14 -31 -14 152 -18 229 -5 111
20 210 24 353 15 l128 -8 -6 22 c-3 15 -1 23 7 24 175 7 185 9 152 33 -19 14
-40 19 -157 32 -52 6 -57 5 -51 -11z"/>
<path d="M11505 3484 c36 -16 75 -18 75 -4 0 6 -6 10 -12 11 -7 1 -31 2 -53 3
l-40 3 30 -13z"/>
<path d="M5860 3430 c-51 -8 -22 -21 59 -27 51 -4 63 -3 55 7 -16 16 -73 27
-114 20z"/>
<path d="M6100 3405 c0 -8 55 -33 90 -39 19 -4 44 -11 55 -15 11 -5 38 -14 60
-21 22 -7 47 -18 55 -26 13 -11 27 -11 85 4 l70 17 -48 7 c-27 3 -55 12 -64
20 -14 11 -16 10 -11 -9 7 -25 -6 -32 -15 -9 -4 9 -29 17 -71 21 -37 4 -69 11
-72 16 -3 5 -18 9 -33 9 -15 0 -36 7 -47 15 -18 14 -54 21 -54 10z"/>
<path d="M6680 3380 c0 -4 -16 -8 -36 -8 -51 0 -51 -7 1 -32 60 -29 105 -67
105 -89 0 -10 -9 -26 -20 -36 -18 -16 -28 -17 -127 -6 -137 16 -225 36 -239
56 -7 9 -27 15 -54 15 -23 0 -86 6 -139 14 -139 21 -211 26 -211 15 0 -13 34
-27 110 -43 36 -8 103 -23 150 -34 91 -21 307 -55 459 -73 116 -13 286 2 405
38 93 27 110 38 44 29 -26 -4 -49 -3 -52 2 -3 6 -21 13 -40 16 -46 9 -57 36
-15 36 45 0 31 23 -20 34 -33 7 -45 6 -51 -5 -7 -11 -15 -11 -40 -2 -25 9 -31
9 -39 -5 -8 -14 -11 -13 -21 10 -10 20 -22 28 -55 32 -23 4 -59 15 -79 25 -20
11 -36 15 -36 11z"/>
<path d="M11920 3382 c0 -12 68 -47 76 -40 3 4 -9 16 -27 27 -37 23 -49 26
-49 13z"/>
<path d="M5680 3364 c0 -12 90 -46 133 -50 50 -4 51 -4 24 9 -16 8 -33 20 -37
27 -7 12 -120 25 -120 14z"/>
<path d="M12040 3331 c0 -5 7 -14 15 -21 13 -10 15 -9 15 9 0 12 -6 21 -15 21
-8 0 -15 -4 -15 -9z"/>
<path d="M11834 3168 c4 -24 22 -73 40 -109 19 -36 41 -92 51 -124 18 -62 26
-62 45 0 7 22 21 57 31 77 11 21 19 58 19 83 0 44 -2 47 -37 62 -21 8 -44 24
-51 34 -10 14 -25 19 -59 19 l-46 0 7 -42z"/>
<path d="M9971 3183 c0 -6 -4 -18 -7 -27 -4 -12 0 -16 15 -16 12 0 21 5 21 10
0 6 -4 10 -9 10 -5 0 -12 8 -14 18 -3 9 -5 12 -6 5z"/>
<path d="M6462 2988 c5 -15 28 -23 28 -10 0 5 -7 13 -16 16 -10 4 -14 1 -12
-6z"/>
<path d="M5975 2850 c-3 -5 -15 -10 -26 -10 -24 0 -25 -17 -1 -24 9 -3 43 -8
76 -12 48 -5 58 -4 54 7 -3 8 -11 13 -18 11 -6 -1 -27 7 -45 18 -21 13 -36 17
-40 10z"/>
<path d="M7327 2736 c-4 -10 -1 -13 8 -9 8 3 12 9 9 14 -7 12 -11 11 -17 -5z"/>
<path d="M11626 2702 c-3 -5 2 -21 10 -36 7 -16 14 -35 14 -42 0 -8 5 -14 11
-14 16 0 -22 -106 -44 -121 -21 -15 39 -209 76 -247 15 -14 18 -14 37 3 11 10
20 23 20 28 0 6 21 55 46 110 62 131 66 169 24 225 -46 61 -175 124 -194 94z"/>
<path d="M10401 2669 c-29 -12 -18 -28 39 -55 34 -16 39 -23 35 -44 -3 -18 3
-34 23 -56 28 -32 129 -118 172 -147 41 -28 167 -138 252 -219 l80 -77 -6 42
c-10 71 -77 228 -123 288 -24 30 -43 62 -43 71 0 9 -21 28 -47 43 -179 102
-231 125 -243 106 -5 -10 -21 -3 -57 23 -28 20 -52 36 -54 35 -2 0 -15 -5 -28
-10z"/>
</g>
</svg>
